<svg width="45" height="52" viewBox="0 0 45 52" fill="none" xmlns="http://www.w3.org/2000/svg">
<path fill-rule="evenodd" clip-rule="evenodd" d="M20.682 1.91475C21.2488 2.78456 23.1989 5.78917 25.0158 8.59167L28.3192 13.6872H29.7562H31.1931V10.3739V7.0605H36.4142H41.6352V10.3714V13.6824L43.317 13.7099L44.9988 13.7374V29.8022C44.9988 47.8633 45.0641 46.3203 44.2286 48.0245C43.6231 49.2595 42.5345 50.3309 41.2314 50.9741C39.581 51.7888 40.8242 51.7369 22.9031 51.7389C11.8626 51.7401 6.74818 51.7071 6.33632 51.6319C4.29519 51.2592 2.36511 49.8112 1.4692 47.9805C0.648392 46.3031 0.724495 48.7402 0.693974 23.1504L0.666664 0.333374H10.1591H19.6515L20.682 1.91475ZM7.69841 10.4743V14.0888H13.7704H19.8423L18.7582 12.4071C18.162 11.482 17.1127 9.85577 16.4264 8.79318L15.1786 6.86099L11.4385 6.86039L7.69841 6.85969V10.4743ZM31.1429 23.6273L28.8352 25.9366H22.8612H16.8871L14.5523 23.6035L12.2176 21.2704L11.1633 22.3211L10.109 23.3718L12.4681 25.7383L14.8272 28.1049V32.9649V37.8249L12.4681 40.1916L10.109 42.5581L11.1633 43.6088L12.2176 44.6595L14.5523 42.3264L16.8871 39.9933H22.8595H28.832L31.1673 42.327L33.5027 44.6607L34.5812 43.5821L35.6598 42.5036L33.326 40.1683L30.9923 37.833V32.9649V28.0969L33.3254 25.7622L35.6585 23.4275L34.6074 22.3727C34.0293 21.7926 33.5325 21.318 33.5035 21.318C33.4743 21.318 32.4122 22.3572 31.1429 23.6273ZM27.9802 32.9649V36.9811H22.9097H17.8393V32.9649V28.9487H22.9097H27.9802V32.9649Z" fill="white"/>
</svg>
