<svg width="389" height="88" viewBox="0 0 389 88" fill="none" xmlns="http://www.w3.org/2000/svg">
<path d="M127.67 6.39383H123.825L119.218 18.6657L114.572 6.39383H110.686V21.6334H113.13V9.28133L117.776 21.6334H120.58L125.227 9.28133V21.6334H127.67V6.39383Z" fill="white"/>
<path d="M131.916 7.91779H134.56V5.51154H131.916V7.91779ZM132.036 21.6334H134.439V9.60216H132.036V21.6334Z" fill="white"/>
<path d="M144.894 9.40164C143.092 9.40164 141.569 10.2037 140.648 11.4871L140.488 9.60216H138.405V21.6334H140.808V14.7355C140.808 12.8105 142.33 11.447 144.213 11.447C145.855 11.447 146.857 12.61 146.857 14.6553V21.6334H149.26V14.0136C149.26 11.2464 147.458 9.40164 144.894 9.40164Z" fill="white"/>
<path d="M152.905 7.91779H155.549V5.51154H152.905V7.91779ZM153.025 21.6334H155.429V9.60216H153.025V21.6334Z" fill="white"/>
<path d="M163.32 21.8339C166.324 21.8339 168.207 20.4303 168.207 18.2246C168.207 16.3397 166.965 15.3371 163.68 14.4949C161.637 13.9735 160.997 13.5725 160.997 12.8105C160.997 11.9683 161.918 11.447 163.28 11.447C164.562 11.447 165.643 11.8881 166.604 12.6902L167.966 10.8855C166.644 9.92299 165.082 9.40164 163.4 9.40164C160.556 9.40164 158.673 10.8053 158.673 12.9709C158.673 14.8157 159.915 15.8183 163.039 16.6204C165.243 17.1417 165.883 17.5829 165.883 18.3449C165.883 19.2673 164.922 19.7485 163.4 19.7485C161.798 19.7485 160.476 19.2272 159.474 18.2647L158.153 19.9891C159.474 21.1923 161.277 21.8339 163.32 21.8339Z" fill="white"/>
<path d="M177.7 11.6475V9.60216H174.015V6.39383H171.932L171.611 9.60216H169.248V11.6475H171.611V18.4652C171.611 20.6709 172.893 21.8339 175.257 21.8339C176.058 21.8339 176.899 21.7537 177.7 21.5532V19.3475C176.899 19.548 176.378 19.5881 175.737 19.5881C174.576 19.5881 174.015 19.2272 174.015 17.9839V11.6475H177.7Z" fill="white"/>
<path d="M186.993 9.40164C185.19 9.40164 183.668 10.2438 182.787 11.5272L182.627 9.60216H180.544V21.6334H182.947V14.8959C182.947 12.9709 184.389 11.7277 186.312 11.7277C186.833 11.7277 187.394 11.7678 187.914 11.8079V9.52195C187.594 9.44175 187.313 9.40164 186.993 9.40164Z" fill="white"/>
<path d="M198.609 9.60216L195.525 19.548H194.564L191.079 9.60216H188.435L192.32 19.548H190.598C189.797 20.3501 189.396 21.2725 189.396 22.3553C189.396 24.4808 190.758 25.8444 192.761 25.8444C194.804 25.8444 196.166 24.5209 197.167 21.473L201.173 9.60216H198.609ZM192.841 23.8391C192.04 23.8391 191.479 23.2777 191.479 22.4355C191.479 22.0746 191.559 21.7537 191.76 21.473H194.764L194.524 22.1949C194.163 23.2376 193.562 23.8391 192.841 23.8391Z" fill="white"/>
<path d="M115.493 53.1006C119.098 53.1006 121.581 50.574 121.581 46.8845C121.581 43.1147 119.178 40.6683 115.493 40.6683C111.888 40.6683 109.404 43.1949 109.404 46.8845C109.404 50.6543 111.808 53.1006 115.493 53.1006ZM115.493 51.0553C113.29 51.0553 111.848 49.411 111.848 46.8845C111.848 44.3579 113.29 42.7136 115.493 42.7136C117.696 42.7136 119.138 44.3579 119.138 46.8845C119.138 49.411 117.696 51.0553 115.493 51.0553Z" fill="white"/>
<path d="M129.032 38.623C129.913 38.623 130.634 38.9037 131.275 39.385L132.397 37.5803C131.435 36.9386 130.354 36.5777 129.112 36.5777C126.709 36.5777 125.227 37.9011 125.227 40.0266V40.8688H122.743V42.9141H125.227V52.9001H127.63V42.9141H131.075V40.8688H127.63V40.0667C127.63 39.1845 128.151 38.623 129.032 38.623Z" fill="white"/>
<path d="M145.815 37.6605H140.248V52.9001H145.815C150.542 52.9001 153.346 49.772 153.346 45.2803C153.346 40.6683 150.662 37.6605 145.815 37.6605ZM145.815 50.6944H142.771V39.8662H145.815C148.9 39.8662 150.742 41.9516 150.742 45.2803C150.742 48.6089 148.9 50.6944 145.815 50.6944Z" fill="white"/>
<path d="M156.43 39.1845H159.074V36.7782H156.43V39.1845ZM156.55 52.9001H158.954V40.8688H156.55V52.9001Z" fill="white"/>
<path d="M171.571 40.8688L171.411 42.5933C170.49 41.3902 169.048 40.6683 167.285 40.6683C164.201 40.6683 162.038 43.0345 162.038 46.5235C162.038 50.0527 164.121 52.3787 167.285 52.3787C169.008 52.3787 170.41 51.6569 171.371 50.4537V51.6168C171.371 53.5418 170.41 55.0657 167.726 55.0657C166.204 55.0657 165.122 54.7048 164.161 53.7022L162.879 55.3865C163.961 56.4694 165.563 57.111 167.766 57.111C171.451 57.111 173.614 54.8652 173.614 51.6569L173.654 40.8688H171.571ZM167.926 50.4136C165.843 50.4136 164.481 48.9298 164.481 46.5636C164.481 44.2376 165.843 42.7136 167.926 42.7136C170.049 42.7136 171.411 44.2376 171.411 46.5636C171.411 48.9298 170.049 50.4136 167.926 50.4136Z" fill="white"/>
<path d="M177.5 39.1845H180.143V36.7782H177.5V39.1845ZM177.62 52.9001H180.023V40.8688H177.62V52.9001Z" fill="white"/>
<path d="M191.079 42.9141V40.8688H187.394V37.6605H185.311L184.99 40.8688H182.627V42.9141H184.99V49.7319C184.99 51.9376 186.272 53.1006 188.635 53.1006C189.436 53.1006 190.278 53.0204 191.079 52.8199V50.6142C190.278 50.8147 189.757 50.8548 189.116 50.8548C187.954 50.8548 187.394 50.4938 187.394 49.2506V42.9141H191.079Z" fill="white"/>
<path d="M203.416 50.8147C202.895 50.8147 202.655 50.574 202.655 50.0527V44.6386C202.655 42.1522 200.892 40.6683 198.008 40.6683C195.925 40.6683 194.203 41.3902 192.801 42.7136L194.283 44.2777C195.245 43.2751 196.526 42.6735 197.888 42.6735C199.41 42.6735 200.412 43.3152 200.412 44.2777C200.412 45.2001 199.531 45.3605 197.728 45.6011C195.405 45.9621 192.561 46.6037 192.561 49.5714C192.561 51.6569 194.123 53.1006 196.486 53.1006C198.249 53.1006 199.851 52.2985 200.692 51.0553C200.852 52.4589 201.533 52.9803 203.015 52.9803C203.416 52.9803 203.736 52.9402 203.857 52.9001V50.8147H203.416ZM196.887 51.1355C195.645 51.1355 194.924 50.5339 194.924 49.411C194.924 47.847 196.486 47.6063 198.008 47.3657C199.17 47.1652 199.891 47.0449 200.332 46.7641V48.3282C200.332 49.8522 198.729 51.1355 196.887 51.1355Z" fill="white"/>
<path d="M206.54 52.9001H208.944V36.8584H206.54V52.9001Z" fill="white"/>
<path d="M231.015 37.6605H217.636V39.9865H223.043V52.9001H225.607V39.9865H231.015V37.6605Z" fill="white"/>
<path d="M237.744 40.6683C235.941 40.6683 234.419 41.5105 233.538 42.7938L233.378 40.8688H231.295V52.9001H233.698V46.1626C233.698 44.2376 235.14 42.9944 237.063 42.9944C237.584 42.9944 238.145 43.0345 238.665 43.0746V40.7886C238.345 40.7084 238.064 40.6683 237.744 40.6683Z" fill="white"/>
<path d="M250.282 50.8147C249.761 50.8147 249.52 50.574 249.52 50.0527V44.6386C249.52 42.1522 247.758 40.6683 244.874 40.6683C242.791 40.6683 241.069 41.3902 239.667 42.7136L241.149 44.2777C242.11 43.2751 243.392 42.6735 244.754 42.6735C246.276 42.6735 247.277 43.3152 247.277 44.2777C247.277 45.2001 246.396 45.3605 244.594 45.6011C242.27 45.9621 239.426 46.6037 239.426 49.5714C239.426 51.6569 240.989 53.1006 243.352 53.1006C245.114 53.1006 246.717 52.2985 247.558 51.0553C247.718 52.4589 248.399 52.9803 249.881 52.9803C250.282 52.9803 250.602 52.9402 250.722 52.9001V50.8147H250.282ZM243.752 51.1355C242.511 51.1355 241.79 50.5339 241.79 49.411C241.79 47.847 243.352 47.6063 244.874 47.3657C246.036 47.1652 246.757 47.0449 247.197 46.7641V48.3282C247.197 49.8522 245.595 51.1355 243.752 51.1355Z" fill="white"/>
<path d="M259.895 40.6683C258.092 40.6683 256.57 41.4704 255.649 42.7537L255.489 40.8688H253.406V52.9001H255.809V46.0022C255.809 44.0772 257.331 42.7136 259.214 42.7136C260.856 42.7136 261.858 43.8767 261.858 45.922V52.9001H264.261V45.2803C264.261 42.5131 262.459 40.6683 259.895 40.6683Z" fill="white"/>
<path d="M271.752 53.1006C274.756 53.1006 276.638 51.697 276.638 49.4912C276.638 47.6063 275.397 46.6037 272.112 45.7615C270.069 45.2402 269.428 44.8391 269.428 44.0772C269.428 43.235 270.35 42.7136 271.712 42.7136C272.993 42.7136 274.075 43.1548 275.036 43.9569L276.398 42.1522C275.076 41.1897 273.514 40.6683 271.832 40.6683C268.988 40.6683 267.105 42.072 267.105 44.2376C267.105 46.0824 268.347 47.085 271.471 47.8871C273.674 48.4084 274.315 48.8496 274.315 49.6115C274.315 50.5339 273.354 51.0152 271.832 51.0152C270.23 51.0152 268.908 50.4938 267.906 49.5313L266.584 51.2558C267.906 52.4589 269.709 53.1006 271.752 53.1006Z" fill="white"/>
<path d="M284.009 38.623C284.89 38.623 285.611 38.9037 286.252 39.385L287.373 37.5803C286.412 36.9386 285.331 36.5777 284.089 36.5777C281.686 36.5777 280.203 37.9011 280.203 40.0266V40.8688H277.72V42.9141H280.203V52.9001H282.607V42.9141H286.052V40.8688H282.607V40.0667C282.607 39.1845 283.128 38.623 284.009 38.623Z" fill="white"/>
<path d="M293.021 53.1006C296.626 53.1006 299.11 50.574 299.11 46.8845C299.11 43.1147 296.707 40.6683 293.021 40.6683C289.416 40.6683 286.933 43.1949 286.933 46.8845C286.933 50.6543 289.336 53.1006 293.021 53.1006ZM293.021 51.0553C290.818 51.0553 289.376 49.411 289.376 46.8845C289.376 44.3579 290.818 42.7136 293.021 42.7136C295.224 42.7136 296.667 44.3579 296.667 46.8845C296.667 49.411 295.224 51.0553 293.021 51.0553Z" fill="white"/>
<path d="M308.443 40.6683C306.64 40.6683 305.118 41.5105 304.237 42.7938L304.077 40.8688H301.994V52.9001H304.397V46.1626C304.397 44.2376 305.839 42.9944 307.762 42.9944C308.283 42.9944 308.844 43.0345 309.364 43.0746V40.7886C309.044 40.7084 308.763 40.6683 308.443 40.6683Z" fill="white"/>
<path d="M326.028 40.6683C324.145 40.6683 322.583 41.5907 321.742 42.9944C321.061 41.5506 319.739 40.6683 317.936 40.6683C316.174 40.6683 314.732 41.4303 313.891 42.6735L313.73 40.8688H311.647V52.9001H314.051V46.0022C314.051 44.0772 315.413 42.7136 317.255 42.7136C318.938 42.7136 319.779 43.8767 319.779 45.922V52.9001H322.182V46.0022C322.182 44.0772 323.544 42.7136 325.387 42.7136C327.029 42.7136 327.91 43.8767 327.91 45.922V52.9001H330.314V45.2803C330.314 42.5131 328.631 40.6683 326.028 40.6683Z" fill="white"/>
<path d="M343.652 50.8147C343.132 50.8147 342.891 50.574 342.891 50.0527V44.6386C342.891 42.1522 341.129 40.6683 338.245 40.6683C336.162 40.6683 334.439 41.3902 333.037 42.7136L334.519 44.2777C335.481 43.2751 336.763 42.6735 338.125 42.6735C339.647 42.6735 340.648 43.3152 340.648 44.2777C340.648 45.2001 339.767 45.3605 337.964 45.6011C335.641 45.9621 332.797 46.6037 332.797 49.5714C332.797 51.6569 334.359 53.1006 336.723 53.1006C338.485 53.1006 340.087 52.2985 340.928 51.0553C341.089 52.4589 341.77 52.9803 343.252 52.9803C343.652 52.9803 343.973 52.9402 344.093 52.9001V50.8147H343.652ZM337.123 51.1355C335.881 51.1355 335.16 50.5339 335.16 49.411C335.16 47.847 336.723 47.6063 338.245 47.3657C339.406 47.1652 340.127 47.0449 340.568 46.7641V48.3282C340.568 49.8522 338.966 51.1355 337.123 51.1355Z" fill="white"/>
<path d="M353.626 42.9141V40.8688H349.941V37.6605H347.858L347.538 40.8688H345.174V42.9141H347.538V49.7319C347.538 51.9376 348.819 53.1006 351.183 53.1006C351.984 53.1006 352.825 53.0204 353.626 52.8199V50.6142C352.825 50.8147 352.304 50.8548 351.663 50.8548C350.502 50.8548 349.941 50.4938 349.941 49.2506V42.9141H353.626Z" fill="white"/>
<path d="M356.55 39.1845H359.194V36.7782H356.55V39.1845ZM356.671 52.9001H359.074V40.8688H356.671V52.9001Z" fill="white"/>
<path d="M368.247 53.1006C371.852 53.1006 374.335 50.574 374.335 46.8845C374.335 43.1147 371.932 40.6683 368.247 40.6683C364.642 40.6683 362.158 43.1949 362.158 46.8845C362.158 50.6543 364.562 53.1006 368.247 53.1006ZM368.247 51.0553C366.044 51.0553 364.602 49.411 364.602 46.8845C364.602 44.3579 366.044 42.7136 368.247 42.7136C370.45 42.7136 371.892 44.3579 371.892 46.8845C371.892 49.411 370.45 51.0553 368.247 51.0553Z" fill="white"/>
<path d="M383.708 40.6683C381.906 40.6683 380.384 41.4704 379.462 42.7537L379.302 40.8688H377.219V52.9001H379.623V46.0022C379.623 44.0772 381.145 42.7136 383.027 42.7136C384.67 42.7136 385.671 43.8767 385.671 45.922V52.9001H388.074V45.2803C388.074 42.5131 386.272 40.6683 383.708 40.6683Z" fill="white"/>
<path d="M115.493 84.3673C119.098 84.3673 121.581 81.8407 121.581 78.1511C121.581 74.3813 119.178 71.935 115.493 71.935C111.888 71.935 109.404 74.4616 109.404 78.1511C109.404 81.9209 111.808 84.3673 115.493 84.3673ZM115.493 82.322C113.29 82.322 111.848 80.6777 111.848 78.1511C111.848 75.6246 113.29 73.9803 115.493 73.9803C117.696 73.9803 119.138 75.6246 119.138 78.1511C119.138 80.6777 117.696 82.322 115.493 82.322Z" fill="white"/>
<path d="M129.032 69.8897C129.913 69.8897 130.634 70.1704 131.275 70.6516L132.397 68.847C131.435 68.2053 130.354 67.8444 129.112 67.8444C126.709 67.8444 125.227 69.1678 125.227 71.2933V72.1355H122.743V74.1808H125.227V84.1668H127.63V74.1808H131.075V72.1355H127.63V71.3334C127.63 70.4511 128.151 69.8897 129.032 69.8897Z" fill="white"/>
<path d="M146.456 84.3673C150.382 84.3673 152.865 81.9209 152.865 78.1511V68.9272H150.342V78.111C150.342 80.5975 148.86 82.1214 146.456 82.1214C144.053 82.1214 142.571 80.5975 142.571 78.111V68.9272H140.047V78.1511C140.047 81.9209 142.531 84.3673 146.456 84.3673Z" fill="white"/>
<path d="M166.845 82.0412C166.484 82.0412 166.244 81.8006 166.244 81.4397V77.0282H164.041L167.085 72.1355H164.522L161.678 76.9079H159.234V68.1251H156.831V84.1668H159.234V79.1136H163.881V81.961C163.881 83.4048 164.722 84.1668 166.204 84.1668H167.285V82.0412H166.845Z" fill="white"/>
<path d="M176.538 71.935C174.736 71.935 173.214 72.7772 172.332 74.0605L172.172 72.1355H170.089V84.1668H172.493V77.4293C172.493 75.5042 173.935 74.261 175.857 74.261C176.378 74.261 176.939 74.3011 177.46 74.3412V72.0553C177.139 71.9751 176.859 71.935 176.538 71.935Z" fill="white"/>
<path d="M189.076 82.0813C188.555 82.0813 188.315 81.8407 188.315 81.3194V75.9053C188.315 73.4188 186.552 71.935 183.668 71.935C181.585 71.935 179.863 72.6569 178.461 73.9803L179.943 75.5444C180.904 74.5418 182.186 73.9402 183.548 73.9402C185.07 73.9402 186.072 74.5819 186.072 75.5444C186.072 76.4668 185.19 76.6272 183.388 76.8678C181.065 77.2287 178.221 77.8704 178.221 80.8381C178.221 82.9235 179.783 84.3673 182.146 84.3673C183.909 84.3673 185.511 83.5652 186.352 82.322C186.512 83.7256 187.193 84.247 188.675 84.247C189.076 84.247 189.396 84.2069 189.517 84.1668V82.0813H189.076ZM182.547 82.4022C181.305 82.4022 180.584 81.8006 180.584 80.6777C180.584 79.1136 182.146 78.873 183.668 78.6324C184.83 78.4319 185.551 78.3115 185.992 78.0308V79.5949C185.992 81.1188 184.389 82.4022 182.547 82.4022Z" fill="white"/>
<path d="M192.28 70.4511H194.924V68.0449H192.28V70.4511ZM192.401 84.1668H194.804V72.1355H192.401V84.1668Z" fill="white"/>
<path d="M205.259 71.935C203.456 71.935 201.934 72.7371 201.013 74.0204L200.852 72.1355H198.769V84.1668H201.173V77.2688C201.173 75.3438 202.695 73.9803 204.578 73.9803C206.22 73.9803 207.221 75.1433 207.221 77.1886V84.1668H209.625V76.547C209.625 73.7798 207.822 71.935 205.259 71.935Z" fill="white"/>
<path d="M214.712 78.9131H223.965C224.045 78.6324 224.045 78.4319 224.045 78.1511C224.045 74.3813 221.762 71.935 218.237 71.935C214.712 71.935 212.308 74.4616 212.308 78.1511C212.308 81.7204 214.471 84.3673 218.437 84.3673C220.961 84.3673 222.643 83.4048 223.644 82.2017L222.002 80.7579C221.321 81.6402 220.199 82.322 218.437 82.322C216.314 82.322 214.992 80.9985 214.712 78.9131ZM218.237 73.9402C220.039 73.9402 221.281 75.1032 221.601 77.0683H214.752C215.112 75.1433 216.354 73.9402 218.237 73.9402Z" fill="white"/>
<path fill-rule="evenodd" clip-rule="evenodd" d="M6.99649 80.9951C13.977 88 24.6869 88 43.9393 88C63.1916 88 73.9015 88 80.898 80.9951C87.8945 73.9902 87.8945 63.2834 87.8945 43.992C87.8945 24.7006 87.8945 13.9938 80.898 6.98894C73.9015 0 63.2075 0 43.9393 0C24.671 0 13.977 0 6.99649 7.0049C0 13.9938 0 24.7166 0 43.992C0 63.2675 0 73.9902 6.99649 80.9951ZM79.8621 8.02603C76.6656 4.83348 72.5847 3.17201 66.8082 2.3248C60.9816 1.47024 53.6151 1.46667 43.9393 1.46667C34.2633 1.46667 26.8972 1.47026 21.0729 2.32671C15.2982 3.17586 11.2221 4.84113 8.03352 8.0408L8.03116 8.04317C4.83555 11.2353 3.17213 15.3201 2.32393 21.1041C1.46849 26.9374 1.46491 34.3125 1.46491 43.992C1.46491 53.6715 1.46849 61.0466 2.32394 66.882C3.17214 72.6679 4.83569 76.7575 8.03234 79.958L8.03352 79.9592C11.2218 83.1586 15.3017 84.8241 21.0788 85.6733C26.9051 86.5297 34.2713 86.5333 43.9393 86.5333C53.6072 86.5333 60.9734 86.5297 66.8018 85.6733C72.5808 84.824 76.6655 83.1585 79.8621 79.958C83.059 76.7573 84.7224 72.6715 85.5705 66.8879C86.426 61.0546 86.4295 53.6796 86.4295 43.992C86.4295 34.3045 86.426 26.9295 85.5705 21.0961C84.7224 15.3126 83.059 11.2267 79.8621 8.02603Z" fill="white"/>
<path d="M42.1762 71.3168C39.1362 68.996 36.8942 65.5339 36.1722 61.501H26.3681V19.0799C31.6501 21.7051 35.4122 27.5261 35.8682 33.5373L37.3502 45.4457L36.6282 45.3315C35.0322 45.3315 33.6641 46.8153 33.6641 48.2991C33.6641 49.6688 34.7282 50.8482 36.0962 51.1526L37.8822 51.5711C40.8462 45.9783 42.5182 40.4997 42.5182 35.0972C42.5182 30.2274 41.8722 25.3955 41.7962 20.4496C41.7962 18.2429 42.6322 16.2265 44.0002 14.6666C45.3682 16.2645 46.2042 18.2429 46.2042 20.4496C46.2042 25.3955 45.4822 30.2654 45.4822 35.0972C45.4822 40.4617 47.1542 45.9783 50.1182 51.5711L51.9042 51.1526C53.2723 50.8482 54.3363 49.6688 54.3363 48.2991C54.3363 46.8153 52.9683 45.3315 51.3722 45.3315L50.6502 45.4457L52.1322 33.5373C52.8543 27.5261 56.3503 21.7051 61.6323 19.0799V61.501H51.8282C51.1062 65.4958 48.9782 69.1102 45.8242 71.3168C45.1022 71.8495 44.4562 72.4963 44.0382 73.3333C43.5442 72.4582 42.8982 71.8495 42.1762 71.3168ZM31.0041 46.8534C31.4221 45.2555 32.6001 43.8858 34.0441 43.0488L32.8661 33.233C32.4481 30.1893 31.1941 27.45 29.2941 25.2053V46.8153H31.0041V46.8534ZM35.9822 58.5334C35.9822 57.0497 36.2102 55.68 36.5142 54.3104L35.1462 54.006C33.1321 53.3592 31.5741 51.7993 31.0421 49.7829H29.3701V58.5334H35.9822ZM42.4802 58.5334C42.4802 56.7453 41.1122 55.1474 39.3262 54.9571C39.0222 56.0985 38.7942 57.2779 38.7942 58.5334H42.4802ZM42.4802 61.501H39.2122C39.7442 63.8218 40.8842 65.9143 42.4802 67.7405V61.501ZM47.1162 52.332C45.8622 50.0112 44.6842 47.5763 43.9622 45.0652C43.2402 47.6143 42.0622 50.0112 40.8082 52.332C42.0622 52.6363 43.1262 53.4734 43.9622 54.4245C44.7982 53.4734 45.8622 52.6363 47.1162 52.332ZM49.1302 58.5334C49.1302 57.2779 48.9022 56.0985 48.5982 54.9571C46.8122 55.1854 45.4442 56.7453 45.4442 58.5334H49.1302ZM48.7122 61.501H45.4442V67.7405C47.0402 65.9143 48.1802 63.8218 48.7122 61.501ZM58.6303 58.5334V49.7829H56.9583C56.4263 51.7993 54.8683 53.3592 52.8542 54.006L51.4862 54.3104C51.7902 55.68 52.0182 57.0497 52.0182 58.5334H58.6303ZM58.6303 46.8534V25.2434C56.7303 27.45 55.3623 30.1893 55.0583 33.271L53.8803 43.0868C55.3623 43.9239 56.5023 45.2935 56.9203 46.8914H58.6303V46.8534Z" fill="white"/>
</svg>
