<?xml version="1.0" standalone="no"?>
<!DOCTYPE svg PUBLIC "-//W3C//DTD SVG 20010904//EN"
 "http://www.w3.org/TR/2001/REC-SVG-20010904/DTD/svg10.dtd">
<svg version="1.0" xmlns="http://www.w3.org/2000/svg"
 width="940.000000pt" height="940.000000pt" viewBox="0 0 940.000000 940.000000"
 preserveAspectRatio="xMidYMid meet">
<metadata>
Created by potrace 1.14, written by Peter Selinger 2001-2017
</metadata>
<g transform="translate(0.000000,940.000000) scale(0.100000,-0.100000)"
fill="#000000" stroke="none">
<path d="M0 4700 l0 -4700 4700 0 4700 0 0 4700 0 4700 -4700 0 -4700 0 0
-4700z m4618 3358 c3 -22 -2 -28 -30 -37 -47 -15 -161 -17 -166 -3 -5 16 40
42 100 57 75 18 92 15 96 -17z m730 -58 c-7 -11 -16 -20 -20 -20 -13 0 -9 28
5 33 23 10 27 7 15 -13z m-44 -33 c-7 -20 -24 -26 -49 -16 -17 7 -16 8 8 8 15
1 30 8 34 16 3 9 7 14 9 12 3 -2 2 -11 -2 -20z m784 5 c3 -9 -3 -13 -19 -10
-12 1 -24 9 -27 16 -3 9 3 13 19 10 12 -1 24 -9 27 -16z m-2034 -57 c2 -7 -1
-18 -8 -24 -16 -14 -49 22 -34 37 13 13 35 6 42 -13z m1625 16 c21 -13 4 -31
-30 -31 -22 0 -29 5 -29 20 0 21 33 28 59 11z m-611 -13 c7 -7 12 -22 12 -33
0 -28 43 -49 70 -35 11 6 34 10 52 10 18 0 44 0 57 0 14 0 27 -2 30 -5 10 -11
-20 -28 -49 -28 -18 0 -30 -5 -30 -14 0 -9 8 -12 23 -9 12 3 38 7 58 11 48 7
65 27 41 47 -35 31 -62 40 -78 27 -22 -18 -71 -21 -100 -6 -24 13 -25 13 -6
30 16 15 26 16 66 7 25 -5 77 -7 114 -4 80 8 100 -4 77 -46 -11 -19 -14 -21
-15 -7 0 32 -15 17 -34 -34 l-18 -52 29 -28 28 -29 48 18 c44 17 53 32 19 32
-17 0 -52 28 -52 42 0 4 9 8 19 8 22 0 35 37 25 75 -7 28 -5 29 30 15 30 -11
32 -22 10 -44 -14 -15 -14 -17 0 -22 23 -9 20 -24 -4 -24 -25 0 -26 -9 -3 -26
10 -7 18 -21 18 -31 0 -11 9 -19 23 -21 26 -4 29 14 7 45 -13 18 -12 22 5 38
26 24 62 8 81 -34 16 -36 29 -40 36 -11 3 11 11 20 19 20 8 0 11 6 7 16 -4 10
-14 14 -29 11 -16 -3 -24 0 -24 9 0 9 12 14 35 14 28 0 42 -7 66 -35 17 -19
37 -35 45 -35 8 0 14 -4 14 -8 0 -4 17 -14 38 -21 20 -8 45 -20 54 -28 17 -15
38 -10 38 9 0 5 -13 30 -30 55 -34 50 -37 65 -15 83 19 16 45 -3 45 -32 0 -31
30 -52 79 -56 54 -4 158 -10 184 -11 23 -1 22 -38 -2 -51 -11 -5 -32 -10 -47
-10 l-27 0 27 -25 c15 -14 24 -30 20 -36 -4 -7 1 -10 12 -7 10 1 27 21 38 43
18 33 26 39 47 37 29 -3 52 18 43 41 -3 8 -25 20 -49 26 -23 6 -46 18 -49 27
-5 13 -15 15 -54 9 -26 -4 -62 -13 -80 -21 -29 -12 -34 -11 -39 2 -3 8 -1 20
4 25 15 15 83 29 111 24 12 -3 33 -7 47 -10 14 -3 25 -12 25 -20 0 -17 31 -20
47 -4 8 8 20 3 44 -20 l32 -31 -20 -23 c-11 -12 -25 -35 -30 -52 -5 -16 -15
-31 -21 -31 -7 -1 -17 -2 -23 -3 -5 0 -7 -6 -4 -11 4 -6 11 -7 17 -4 7 5 9 -2
4 -20 -5 -22 -3 -26 17 -26 13 0 28 -5 34 -11 17 -17 67 11 71 39 2 13 10 22
21 22 9 0 26 7 37 15 19 15 66 20 77 9 10 -10 -36 -64 -55 -64 -11 0 -15 -5
-12 -15 9 -23 65 -20 71 4 2 10 16 24 29 32 21 11 29 10 53 -4 37 -22 99 -23
108 -1 3 8 -4 25 -17 39 -27 29 -26 30 17 38 32 6 53 -6 33 -18 -16 -10 -12
-65 5 -65 8 0 24 -5 35 -12 18 -12 18 -13 -8 -28 -21 -13 -35 -15 -61 -8 -40
11 -65 -4 -34 -21 21 -11 57 -9 86 3 10 5 23 3 32 -4 12 -10 16 -9 21 4 8 22
19 20 21 -4 1 -11 -4 -20 -13 -20 -8 0 -14 -4 -14 -9 0 -13 24 -20 55 -17 14
2 49 -7 76 -20 36 -18 66 -24 114 -24 51 0 65 -3 65 -15 0 -16 6 -17 112 -19
38 0 68 -4 69 -8 0 -4 4 -22 10 -40 7 -28 5 -36 -16 -58 l-24 -25 49 1 c28 0
53 3 56 6 5 6 57 -18 104 -47 8 -5 27 -10 42 -12 16 -2 43 -11 60 -20 17 -10
39 -22 49 -28 23 -12 24 -16 1 -41 -10 -10 -21 -27 -25 -36 -3 -10 -12 -15
-20 -12 -10 4 -14 -10 -14 -63 -1 -37 3 -74 9 -80 12 -15 2 -63 -13 -63 -6 0
-17 7 -25 15 -9 8 -24 15 -35 15 -19 0 -19 -1 -2 -25 10 -13 21 -25 26 -25 15
0 6 -19 -12 -25 -22 -7 -61 13 -61 32 0 6 -7 19 -16 27 -14 14 -17 14 -31 1
-8 -9 -12 -22 -9 -30 3 -8 1 -17 -4 -20 -6 -4 -10 -18 -10 -33 1 -23 2 -25 11
-9 6 9 15 14 21 11 6 -4 27 -9 47 -11 19 -2 40 -8 47 -13 7 -7 23 -2 49 15
l37 26 32 -33 c57 -60 62 -62 86 -38 12 12 22 30 23 41 1 12 9 19 22 20 11 0
14 3 8 6 -23 9 -14 22 12 19 14 -2 32 -11 40 -22 15 -19 15 -18 35 4 12 15 28
22 43 20 13 -1 32 5 41 15 17 17 66 24 66 10 0 -5 -9 -23 -21 -42 -17 -28 -19
-39 -9 -59 14 -32 11 -34 -41 -30 -40 3 -42 4 -26 20 21 20 21 28 2 28 -18 0
-44 -49 -37 -69 3 -8 -3 -20 -13 -27 -24 -18 -13 -38 28 -51 35 -11 70 -2 48
11 -6 4 -11 16 -11 27 0 29 33 23 59 -11 14 -20 28 -29 39 -26 24 8 115 -7
119 -19 2 -6 -11 -16 -28 -24 -26 -11 -32 -11 -47 2 -9 8 -27 18 -39 21 -35
11 -28 -14 7 -27 40 -15 38 -50 -3 -55 -21 -3 -36 5 -62 32 -19 20 -38 36 -41
36 -4 0 -4 -3 -1 -7 4 -3 2 -12 -4 -19 -13 -16 -4 -34 18 -34 9 0 31 -11 49
-25 18 -14 41 -25 50 -25 10 0 51 -8 91 -17 61 -15 73 -21 69 -35 -3 -14 2
-18 25 -18 23 0 29 -4 29 -21 0 -12 -8 -23 -20 -26 -11 -3 -20 -12 -20 -19 0
-8 -6 -14 -12 -14 -29 -1 55 -29 104 -35 29 -4 56 -13 61 -20 13 -24 105 -75
111 -62 2 7 5 1 5 -12 1 -14 8 -33 17 -43 14 -15 15 -20 4 -33 -16 -19 -4 -34
31 -37 19 -2 25 -7 24 -23 -1 -11 2 -28 7 -39 6 -10 6 -21 2 -25 -5 -3 -10
-10 -10 -16 -1 -5 -4 -21 -7 -35 -5 -21 -1 -28 22 -38 20 -9 29 -20 29 -37 0
-14 -5 -25 -10 -25 -5 0 -6 -4 -3 -10 10 -17 -5 -11 -27 10 -28 26 -37 22 -67
-23 -21 -32 -26 -35 -36 -20 -11 14 -12 14 -18 -1 -6 -15 -10 -15 -46 4 -47
23 -70 25 -77 6 -5 -14 -50 -11 -70 6 -23 17 -88 -31 -77 -58 2 -6 -3 -14 -11
-17 -27 -11 -18 -22 35 -42 28 -11 54 -26 56 -32 3 -7 12 -13 20 -13 8 0 13
-6 10 -12 -2 -7 -17 -13 -34 -13 -25 1 -29 -2 -25 -22 10 -51 -2 -55 -74 -28
-36 14 -78 25 -93 25 -15 0 -32 5 -38 11 -6 6 -16 10 -23 7 -15 -5 31 -58 50
-58 11 0 11 -3 -3 -17 -15 -15 -23 -16 -69 -5 -29 6 -91 19 -137 28 -83 15
-85 15 -100 -5 -9 -11 -32 -24 -51 -27 -19 -4 -41 -11 -48 -17 -7 -5 -32 -7
-57 -4 -42 6 -45 5 -45 -17 0 -22 -3 -24 -42 -19 -24 3 -50 9 -58 13 -8 4 -40
4 -70 1 -42 -5 -55 -10 -55 -23 0 -9 -3 -20 -7 -23 -4 -4 -4 -20 -1 -36 4 -22
2 -29 -10 -29 -21 0 -26 20 -17 71 8 38 6 47 -13 66 -23 22 -171 68 -188 57
-6 -4 -3 -14 7 -25 14 -16 15 -23 5 -45 -10 -23 -15 -25 -49 -20 -117 21 -114
21 -101 -8 7 -14 16 -26 20 -26 5 0 6 -6 3 -14 -4 -11 -13 -12 -41 -4 -20 5
-43 8 -53 5 -9 -2 -24 0 -33 4 -10 6 -18 5 -22 -1 -10 -16 -25 -12 -19 5 5 12
-4 15 -47 16 -30 0 -65 2 -79 5 -85 14 -122 16 -116 5 5 -7 -2 -11 -19 -11
-14 0 -28 7 -31 15 -8 20 -44 19 -44 -1 0 -12 -7 -14 -27 -10 -16 3 -40 8 -55
10 -15 3 -32 7 -37 10 -5 4 -12 2 -16 -4 -9 -15 -57 -12 -98 5 -20 8 -52 15
-71 15 -29 0 -34 3 -29 16 5 14 2 16 -18 11 -13 -3 -36 -9 -51 -13 -15 -3 -35
-4 -43 0 -8 3 -18 4 -21 3 -3 -1 -10 6 -15 16 -6 9 -14 17 -20 17 -12 0 18
-60 31 -61 13 -2 15 -2 85 -23 33 -10 72 -26 87 -34 22 -13 30 -14 40 -4 16
16 53 15 71 -3 8 -7 28 -17 43 -20 16 -4 51 -16 79 -27 28 -12 68 -20 95 -19
25 1 63 3 85 4 22 1 61 -1 88 -5 41 -7 47 -5 47 10 0 11 14 25 35 35 40 19 65
22 65 7 0 -5 7 -10 15 -10 9 0 44 -10 78 -21 43 -15 90 -23 152 -24 61 -1 99
-7 115 -17 26 -15 119 -18 153 -3 10 4 24 2 32 -5 11 -9 15 -10 15 -1 0 7 7
19 15 27 13 13 17 14 36 1 19 -14 20 -15 2 -20 -14 -3 -9 -8 21 -21 37 -17 39
-17 58 3 23 25 21 25 88 5 40 -12 59 -13 77 -5 35 16 76 13 135 -9 50 -19 78
-19 48 0 -11 7 -7 10 16 10 16 0 35 -5 42 -12 9 -9 12 -8 13 8 0 10 3 13 6 7
7 -19 40 -16 51 4 9 15 12 15 37 -3 56 -39 57 -40 62 -26 5 14 43 17 43 3 0
-12 119 -131 131 -131 6 0 8 -4 5 -9 -3 -4 3 -16 13 -25 11 -10 22 -28 25 -42
5 -17 13 -24 31 -24 13 0 27 5 31 11 4 7 25 9 60 4 34 -4 61 -2 75 6 26 13 81
15 123 4 19 -5 31 -4 36 5 11 19 32 1 25 -21 -5 -13 -2 -19 10 -19 8 0 19 -10
24 -23 5 -13 16 -29 25 -36 12 -10 13 -17 5 -27 -14 -17 -6 -30 43 -60 35 -23
39 -29 34 -54 -4 -22 -1 -32 12 -39 22 -12 13 -20 -24 -23 -16 -1 -32 -6 -36
-12 -3 -5 -20 -9 -37 -9 -17 0 -31 -4 -31 -9 0 -4 4 -8 9 -8 15 0 94 -77 83
-81 -5 -2 -12 -19 -15 -37 -6 -28 -4 -35 13 -39 23 -6 25 -24 8 -54 -11 -17
-10 -22 5 -33 22 -17 22 -22 -3 -29 -26 -7 -26 -43 0 -59 15 -10 20 -24 20
-54 0 -35 -4 -43 -22 -49 -18 -5 -19 -8 -8 -12 8 -3 19 -12 23 -20 5 -7 12
-11 16 -8 5 2 14 -2 21 -10 9 -11 9 -15 1 -15 -6 0 -16 -11 -21 -25 -5 -14
-17 -25 -26 -25 -16 0 -16 -1 0 -19 17 -18 17 -20 -3 -40 -22 -22 -51 -28 -51
-11 0 6 -7 10 -15 10 -8 0 -15 -8 -15 -18 0 -26 -75 -72 -127 -77 -17 -1 -42
-10 -55 -19 -12 -9 -36 -16 -52 -16 -17 0 -40 -9 -52 -21 -13 -12 -47 -27 -76
-34 -43 -9 -55 -16 -62 -38 -16 -43 4 -53 55 -28 55 27 73 26 92 -1 l15 -23
21 23 c21 21 35 27 56 22 6 -1 21 -3 35 -4 20 -1 26 -7 28 -32 2 -24 -2 -33
-22 -44 -14 -7 -23 -16 -21 -20 5 -8 -27 -21 -55 -24 -21 -1 -76 -59 -62 -64
15 -5 16 -32 2 -32 -22 0 -25 2 -22 14 1 8 -11 16 -30 20 -26 5 -38 1 -67 -23
-20 -16 -35 -34 -34 -40 2 -6 -11 -18 -28 -27 -26 -13 -33 -13 -40 -3 -4 8
-11 10 -16 6 -4 -5 -1 -12 7 -18 13 -8 13 -10 0 -19 -11 -7 -19 -4 -31 12 -14
18 -21 19 -45 11 -16 -6 -47 -22 -68 -37 -21 -14 -48 -26 -60 -27 -12 0 -15
-3 -8 -6 13 -5 17 -24 5 -21 -5 1 -24 -2 -43 -6 -19 -4 -96 -13 -170 -21 -74
-8 -150 -17 -167 -21 -43 -8 -75 0 -112 32 -31 26 -61 27 -61 2 0 -19 -53 -39
-110 -43 -46 -2 -50 -1 -50 21 0 13 -9 28 -20 34 -23 12 -40 6 -40 -16 0 -16
-18 -18 -39 -5 -12 8 -12 12 -2 25 7 9 17 13 22 10 5 -3 14 -2 20 1 11 7 -23
37 -38 33 -25 -7 -73 14 -86 37 -12 23 -15 25 -26 11 -17 -20 -8 -32 29 -39
25 -6 30 -11 30 -36 0 -30 7 -39 119 -143 22 -21 57 -46 78 -55 21 -10 51 -28
66 -40 15 -12 43 -25 62 -29 20 -3 38 -10 41 -15 3 -5 18 -9 33 -9 15 0 32 -5
39 -12 6 -6 34 -13 62 -15 29 -1 67 -10 86 -19 31 -15 37 -15 74 0 30 12 63
15 129 12 90 -5 139 -19 191 -56 15 -11 34 -18 42 -15 8 3 32 -13 56 -37 42
-42 43 -42 71 -25 27 16 28 16 49 -13 12 -16 22 -32 22 -34 0 -3 -16 -12 -35
-20 -19 -8 -35 -22 -35 -30 0 -9 -8 -16 -17 -16 -14 0 -13 -3 5 -23 23 -25 29
-52 12 -62 -5 -3 -10 -14 -10 -24 0 -10 -11 -26 -24 -35 -18 -11 -24 -24 -23
-43 2 -21 -3 -29 -18 -31 -19 -3 -45 -42 -45 -67 0 -17 -37 -48 -49 -41 -11 7
-61 -13 -61 -26 0 -4 8 -8 18 -8 14 0 12 -4 -8 -21 l-25 -20 30 2 c67 3 73 -8
20 -40 -19 -11 -35 -28 -35 -36 0 -12 -6 -15 -19 -10 -24 7 -37 -11 -21 -30
10 -12 10 -15 -1 -16 -22 -2 -22 -2 -51 5 -24 5 -28 3 -28 -14 0 -11 -4 -20
-10 -20 -5 0 -10 -6 -10 -14 0 -7 -7 -20 -16 -27 -9 -7 -20 -23 -25 -36 -5
-13 -17 -23 -28 -23 -11 0 -22 -4 -26 -9 -3 -5 -21 -7 -40 -4 -44 7 -85 -3
-85 -22 0 -10 -10 -15 -30 -15 -18 0 -30 -5 -30 -13 0 -15 -35 -35 -60 -35 -8
-1 -25 -4 -37 -7 -26 -8 -31 6 -8 25 8 7 15 16 15 21 0 5 -7 9 -15 9 -8 0 -15
-5 -15 -11 0 -5 -6 -7 -12 -3 -10 6 -10 5 -1 -8 16 -19 7 -28 -27 -28 -14 0
-36 -9 -48 -20 -26 -24 -38 -25 -50 -4 -13 23 -48 10 -64 -23 -7 -14 -20 -29
-28 -33 -8 -4 -28 -14 -45 -22 -16 -8 -51 -14 -77 -13 -43 2 -52 -2 -94 -42
-53 -49 -42 -55 34 -17 28 14 60 24 69 22 13 -3 8 -9 -19 -21 -21 -9 -38 -18
-38 -21 0 -2 27 -2 60 1 56 5 60 4 71 -20 17 -38 -4 -80 -60 -121 -61 -45
-129 -63 -167 -44 -16 7 -34 24 -40 37 -11 22 -8 27 33 63 25 22 57 46 70 55
31 20 24 27 -13 12 -16 -7 -38 -14 -48 -16 -11 -2 -25 -8 -32 -14 -7 -6 -22
-8 -33 -4 -20 6 -61 -24 -61 -46 0 -6 -7 -17 -15 -25 -13 -13 -15 -12 -21 11
-6 25 -7 25 -31 10 -15 -10 -41 -15 -66 -14 -46 3 -107 -8 -107 -20 0 -12 103
-41 126 -35 12 3 25 1 28 -5 7 -11 -32 -37 -51 -33 -7 2 -18 -6 -25 -18 -7
-11 -18 -20 -24 -20 -7 0 -14 -9 -17 -20 -5 -20 -31 -27 -41 -12 -3 5 -2 18 1
30 4 17 11 20 28 16 13 -3 26 -1 29 5 9 13 -70 34 -100 27 -13 -4 -24 -11 -24
-16 0 -6 -4 -10 -10 -10 -5 0 -10 7 -10 16 0 8 -5 12 -10 9 -6 -4 -8 -11 -4
-16 3 -6 3 -18 -1 -27 -6 -16 -7 -16 -18 -1 -7 9 -21 19 -32 21 -11 2 -19 10
-17 17 2 10 -4 12 -20 6 -13 -3 -33 -9 -45 -12 -13 -3 -23 -9 -23 -14 0 -5
-12 -6 -26 -3 -20 5 -26 2 -31 -15 -3 -11 -12 -21 -20 -21 -8 0 -11 -4 -8 -10
4 -6 -1 -7 -11 -3 -12 4 -15 3 -10 -6 6 -9 -2 -12 -30 -9 -31 2 -40 7 -42 25
-4 28 -56 49 -83 32 -10 -6 -9 -9 6 -14 11 -4 31 -11 44 -16 24 -10 24 -11
-18 -35 -54 -30 -59 -30 -71 1 -12 32 -32 33 -25 2 4 -15 1 -28 -9 -36 -22
-18 -37 -5 -26 23 7 19 5 23 -8 22 -9 0 -21 9 -27 22 -5 12 -19 23 -30 24 -11
0 -33 2 -50 4 -18 1 -35 -4 -43 -14 -10 -14 -20 -15 -66 -5 -56 12 -107 5
-113 -14 -2 -6 6 -13 19 -16 27 -7 139 3 153 13 6 5 27 11 47 15 33 6 37 5 35
-14 -1 -14 -10 -24 -27 -28 -14 -3 -32 -12 -40 -19 -8 -7 -50 -16 -93 -20 -42
-4 -77 -9 -77 -11 0 -15 23 -43 35 -43 8 0 38 11 68 24 l53 23 43 -22 c35 -20
48 -22 78 -13 24 6 43 6 58 0 16 -7 26 -7 33 0 6 6 30 14 54 18 24 5 57 14 75
21 37 15 48 9 38 -20 -4 -13 -21 -24 -46 -31 -50 -14 -46 -35 6 -35 25 0 50 8
69 22 48 35 76 45 136 48 30 1 80 6 110 9 30 4 84 3 120 -2 44 -7 69 -6 78 1
7 6 61 11 120 13 67 1 123 8 151 18 25 9 47 12 50 7 3 -5 15 -10 26 -13 13 -2
19 -10 17 -23 -5 -28 -8 -29 -32 -12 -23 16 -84 13 -107 -6 -9 -6 -18 -5 -28
3 -8 7 -15 8 -15 3 0 -5 -15 -9 -33 -9 -18 0 -50 -8 -70 -17 -25 -12 -42 -15
-54 -9 -28 15 -106 12 -130 -4 -13 -8 -23 -22 -23 -32 0 -14 -4 -12 -20 8 -18
24 -19 24 -25 5 -4 -11 -11 -28 -17 -39 -10 -18 2 -35 25 -36 5 0 7 -8 5 -17
-2 -14 -11 -17 -36 -15 -17 2 -32 -1 -32 -6 0 -5 -14 -12 -32 -16 l-32 -6 39
-20 c47 -24 46 -24 39 -5 -5 12 2 15 31 15 30 0 34 -2 23 -13 -24 -24 -54 -37
-64 -27 -17 17 -68 -4 -74 -31 -4 -18 -13 -25 -38 -27 -31 -3 -32 -2 -27 25
l6 28 -23 -27 c-25 -29 -56 -36 -76 -16 -9 9 -16 8 -29 -4 -12 -10 -36 -15
-76 -14 -31 0 -59 -3 -61 -9 -3 -6 -9 -4 -14 4 -10 14 -87 7 -98 -10 -7 -11
-47 -12 -59 0 -11 9 -136 -18 -174 -38 -14 -8 -38 -10 -63 -6 -23 4 -50 3 -62
-3 -36 -18 -116 -31 -122 -20 -4 6 -22 8 -42 4 -26 -4 -41 0 -60 14 -13 11
-35 20 -48 20 -12 0 -26 5 -29 10 -9 14 -35 12 -35 -3 0 -10 -22 -12 -97 -9
-54 2 -104 9 -110 14 -16 13 -43 3 -43 -15 0 -15 -1 -16 -87 -22 -35 -2 -72
-9 -83 -15 -11 -6 -42 -8 -76 -4 -48 6 -59 11 -73 35 -13 23 -21 27 -41 22
-14 -3 -29 -12 -33 -20 -11 -18 -85 -17 -104 3 -12 11 -25 14 -47 9 -17 -3
-41 -6 -53 -6 -50 2 -74 2 -85 1 -7 -1 -37 2 -66 6 -34 4 -56 3 -60 -3 -5 -6
-30 -7 -71 -2 -35 4 -71 5 -79 1 -8 -3 -21 3 -28 13 -14 18 -14 18 -14 0 0
-16 -7 -17 -81 -12 -45 4 -87 11 -94 17 -7 6 -26 13 -42 16 -82 13 -99 17
-117 30 -11 8 -38 14 -60 14 -23 0 -47 7 -58 16 -10 10 -40 19 -67 22 -54 5
-67 19 -46 49 11 14 16 16 26 5 7 -6 36 -12 63 -12 41 0 56 5 75 25 13 14 26
25 31 25 4 0 15 18 25 40 14 31 15 43 6 54 -10 12 -8 17 10 27 17 9 24 9 27 0
6 -18 32 -41 47 -41 8 0 19 9 25 20 11 20 44 27 54 11 3 -4 25 -5 48 -1 24 5
68 4 101 -2 42 -8 62 -7 70 1 6 6 34 11 61 12 66 1 101 11 101 29 0 10 -9 14
-25 13 -45 -3 -55 5 -35 27 10 11 23 20 29 20 6 0 25 11 41 25 l30 24 -37 1
c-21 0 -38 -4 -38 -10 0 -5 -6 -10 -14 -10 -8 0 -18 -9 -21 -20 -3 -11 -13
-20 -22 -20 -14 0 -14 2 0 23 16 24 12 30 -33 60 -18 11 -59 17 -145 21 -145
6 -200 17 -226 45 -20 21 -49 29 -49 12 0 -11 22 -29 62 -51 60 -32 39 -65
-24 -37 -83 37 -99 39 -126 12 -30 -30 -37 -31 -56 -4 -8 12 -20 19 -27 17
-14 -5 9 -31 51 -59 22 -14 22 -16 5 -15 -11 1 -33 8 -48 14 -15 7 -39 15 -52
18 -30 7 -33 24 -5 24 22 0 28 29 8 32 -28 3 -41 7 -96 29 -13 5 -28 6 -34 3
-13 -8 -28 14 -28 42 0 33 -43 66 -93 71 l-44 5 -7 -37 c-6 -31 -3 -44 14 -67
12 -16 20 -32 17 -34 -7 -7 -77 36 -77 47 0 5 -10 9 -22 9 -21 -1 -21 -2 -5
-11 18 -11 22 -36 8 -57 -6 -11 -16 -7 -43 17 -20 17 -43 31 -53 31 -9 0 -23
7 -31 15 -9 8 -31 15 -50 15 -39 0 -104 24 -104 38 0 5 7 15 15 22 24 20 18
30 -11 20 -14 -6 -39 -10 -55 -10 -35 0 -39 24 -6 41 12 7 32 20 45 30 22 17
22 17 -20 12 -24 -3 -46 -11 -50 -16 -4 -6 -12 -4 -23 6 -9 10 -12 17 -6 17 6
0 11 9 11 21 0 27 -24 19 -28 -9 -5 -30 -30 -28 -42 4 -6 14 -14 23 -19 19 -9
-5 -31 24 -31 39 0 10 36 6 47 -5 6 -6 21 -9 34 -7 17 2 25 11 29 32 l5 29 14
-26 c15 -28 51 -37 51 -14 0 8 -9 22 -20 32 -11 10 -20 24 -20 32 0 7 -3 13
-7 14 -5 0 -28 2 -53 4 -70 4 -72 4 -65 15 4 6 15 8 26 5 13 -4 21 -1 26 10 7
20 -17 39 -31 25 -6 -6 -23 -10 -39 -10 -21 0 -28 -4 -24 -14 10 -26 -15 -35
-65 -23 -27 7 -48 15 -48 19 0 14 22 20 30 8 4 -7 13 -9 20 -5 7 4 8 11 2 17
-11 11 -123 31 -171 30 -25 -1 -34 4 -38 19 -3 10 -9 16 -14 14 -4 -3 -25 4
-46 15 -21 11 -46 20 -55 20 -10 0 -18 6 -18 13 0 9 -11 12 -35 9 -19 -2 -46
-1 -61 2 -21 6 -24 11 -18 29 4 12 17 32 30 44 13 12 24 26 24 32 0 5 8 12 18
15 28 9 117 96 114 112 -2 8 4 14 13 14 20 0 19 23 -2 42 -24 20 -64 16 -99
-9 -23 -17 -29 -30 -30 -60 -2 -74 -4 -82 -24 -93 -17 -9 -22 -7 -30 12 -5 13
-9 17 -9 11 -1 -18 -26 -16 -45 2 -8 8 -19 15 -25 15 -22 0 -10 -26 25 -55 32
-27 35 -33 22 -46 -8 -8 -13 -20 -10 -27 2 -6 -1 -12 -8 -12 -6 0 -9 -4 -5 -9
3 -5 1 -12 -5 -16 -5 -3 -10 -2 -10 3 0 6 -11 13 -25 16 -27 7 -35 36 -10 36
8 0 15 6 15 14 0 8 3 22 7 32 5 13 3 16 -9 11 -10 -3 -19 0 -22 8 -6 16 -31
11 -57 -12 -9 -7 -19 -10 -22 -6 -12 11 -8 43 6 43 8 0 7 4 -3 10 -13 8 -12
10 3 10 10 0 20 7 23 15 4 8 10 15 15 15 5 0 9 -7 9 -15 0 -8 7 -15 16 -15 11
0 15 6 11 19 -2 10 -1 25 4 32 8 12 12 11 23 -3 7 -10 19 -18 25 -18 7 0 25
-7 41 -15 40 -21 41 0 3 46 -63 74 -74 81 -123 74 -92 -12 -130 -13 -136 -4
-3 5 -19 16 -35 25 -25 12 -33 13 -46 3 -12 -11 -17 -10 -28 4 -7 9 -18 17
-25 17 -10 0 -10 3 1 16 12 14 14 14 25 -1 8 -11 18 -14 26 -9 7 5 21 7 30 6
22 -4 23 11 3 28 -8 7 -15 10 -15 6 0 -4 -14 1 -30 9 -17 9 -35 13 -40 10 -6
-3 -10 -2 -10 4 0 5 6 12 13 15 8 3 5 11 -11 25 -13 11 -21 25 -17 30 8 13
-18 72 -38 90 -10 7 -17 17 -17 22 0 16 26 10 50 -11 22 -19 60 -28 60 -14 0
4 -7 12 -17 19 -23 17 -8 38 17 25 14 -7 25 -7 39 2 16 10 23 9 38 -4 27 -24
114 -13 98 12 -3 5 -1 11 5 15 5 3 10 -1 10 -9 0 -9 7 -16 15 -16 8 0 15 7 15
15 0 12 8 14 42 9 24 -4 47 -10 52 -15 13 -12 59 -11 51 0 -9 15 -67 41 -77
35 -10 -7 -93 30 -103 46 -4 6 -25 22 -47 36 -46 30 -43 45 4 21 18 -8 63 -28
100 -44 37 -15 68 -34 68 -41 0 -7 6 -12 12 -11 36 4 56 -2 54 -18 -1 -16 9
-18 74 -19 41 0 85 -4 97 -8 12 -4 24 -2 28 4 3 5 -1 10 -10 10 -9 0 -33 9
-55 20 -22 11 -57 20 -79 20 -55 0 -123 28 -119 49 2 9 12 16 23 17 11 1 33 5
49 9 18 5 36 4 46 -3 10 -6 34 -14 54 -18 29 -5 40 -3 50 12 13 17 14 17 27
-4 18 -28 49 -29 49 -2 0 13 7 20 20 20 15 0 20 7 20 28 0 15 -7 35 -15 45
-13 18 -14 18 -24 -2 -6 -11 -11 -27 -11 -36 0 -11 -7 -15 -22 -13 -20 3 -23
9 -23 43 0 40 -3 43 -41 31 -18 -5 -24 -1 -33 25 -15 43 -14 49 8 49 11 0 23
4 26 10 4 6 -9 9 -33 8 -46 -1 -71 -28 -46 -48 11 -10 12 -16 3 -26 -15 -19
-55 -18 -63 1 -3 8 -15 15 -26 15 -55 0 18 73 123 122 37 18 67 35 67 39 0 11
-44 19 -50 8 -4 -5 -16 -11 -28 -14 -19 -3 -21 0 -16 19 7 31 -23 58 -40 34
-10 -14 -14 -14 -31 -1 -26 19 -142 9 -227 -18 -53 -18 -69 -19 -156 -9 -53 6
-98 12 -100 15 -14 14 18 25 73 25 36 0 82 6 102 14 51 19 156 36 226 36 44 0
62 5 77 20 11 11 20 25 20 30 0 6 9 10 19 10 11 0 23 5 26 10 12 20 25 10 25
-19 0 -21 10 -39 32 -60 37 -35 31 -34 118 -17 58 11 65 15 62 34 -4 26 5 28
29 7 14 -13 19 -14 30 -3 8 7 35 23 62 36 26 13 47 27 47 32 0 14 -43 40 -66
40 -26 0 -41 16 -46 49 -4 34 -25 38 -39 8 -12 -27 -44 -27 -66 1 -11 14 -15
13 -33 -3 -11 -10 -20 -24 -20 -32 0 -15 -57 -18 -80 -3 -13 9 -13 10 0 11 8
1 20 3 25 4 6 2 16 3 23 4 6 0 12 6 12 12 0 7 -10 9 -26 5 -43 -11 -94 4 -104
30 -5 13 -16 24 -24 24 -7 0 -19 7 -26 15 -19 23 -39 18 -66 -15 -21 -25 -29
-28 -50 -20 -13 5 -39 11 -57 12 -40 2 -57 14 -57 42 0 17 6 21 38 22 182 7
327 28 422 62 8 3 -7 9 -34 13 -29 5 -57 4 -67 -2 -20 -10 -274 -11 -333 -1
-44 8 -62 32 -24 32 29 1 73 34 64 49 -10 15 -35 14 -69 -4 -29 -15 -127 -10
-127 6 0 5 -8 9 -18 9 -10 0 -23 5 -29 11 -9 9 -23 9 -52 2 -30 -8 -43 -8 -50
1 -6 7 -38 13 -72 14 -68 2 -80 7 -73 26 5 14 -23 26 -65 26 -54 0 -104 24
-132 63 -16 22 -29 48 -29 57 0 19 39 40 75 40 35 0 22 23 -25 46 -43 21 -51
34 -21 34 11 0 21 5 23 11 2 7 23 12 46 12 23 0 42 1 42 3 0 19 -23 54 -35 54
-9 0 -13 5 -10 10 3 6 15 10 26 10 14 0 19 7 19 28 0 21 7 32 25 40 33 15 32
31 -4 45 -40 15 -45 49 -15 93 13 19 24 37 24 40 0 3 18 26 40 51 50 57 52 78
9 69 -17 -3 -42 -6 -56 -6 -13 0 -21 -4 -18 -10 3 -5 0 -8 -7 -6 -7 3 -25 7
-41 10 -27 6 -38 26 -14 26 21 0 97 39 97 50 0 6 7 10 16 10 9 0 28 6 42 14
15 8 36 18 47 22 15 6 8 9 -28 12 -27 2 -54 -2 -61 -7 -18 -15 -75 8 -73 30 1
16 46 35 71 30 5 -1 17 6 28 16 18 16 19 16 13 -3 -6 -18 -6 -18 8 -1 13 15
15 16 21 2 4 -11 21 -15 65 -15 43 0 60 -4 65 -15 6 -16 51 -21 60 -7 2 4 19
9 37 10 18 2 36 6 39 10 6 9 23 13 73 17 22 2 51 6 65 10 15 3 37 7 50 10 12
2 55 13 95 23 40 11 99 25 132 32 33 7 76 18 95 25 19 7 61 16 93 19 31 4 57
12 57 17 0 5 14 7 30 4 17 -3 30 -1 30 5 0 5 -8 10 -17 11 -14 0 -15 2 -3 6 8
3 20 11 25 18 6 7 40 16 75 19 36 4 92 10 125 15 33 5 90 10 127 10 37 1 69 5
72 9 3 5 22 7 43 4 75 -8 88 -7 86 6 -4 18 17 15 36 -5 9 -10 23 -20 31 -22
40 -11 70 -12 84 -4 13 7 13 12 3 33 -10 20 -20 25 -52 25 -22 0 -51 7 -65 14
-14 8 -54 18 -90 21 -111 12 -253 49 -295 77 -21 14 -53 41 -71 60 -38 40 -64
45 -39 7 22 -34 13 -40 -27 -21 -18 8 -45 19 -60 22 -25 6 -27 11 -24 41 5 42
-1 47 -41 27 -67 -32 -83 -106 -30 -131 16 -8 26 -16 24 -19 -8 -8 -109 48
-129 71 -26 31 -19 67 17 86 17 8 32 16 35 18 2 2 -2 7 -10 12 -24 15 -58 11
-69 -7 -7 -13 -12 -14 -23 -6 -13 11 -70 21 -159 27 -42 4 -46 2 -42 -15 3
-10 9 -19 14 -19 5 0 9 -5 9 -11 0 -8 -4 -9 -13 0 -8 6 -16 8 -19 6 -7 -7 -60
16 -70 29 -4 6 -16 6 -32 -2 -17 -8 -27 -8 -32 -1 -3 6 -25 19 -49 29 -46 20
-61 35 -45 45 18 11 0 25 -31 25 -19 0 -38 9 -53 25 -15 16 -30 23 -40 19 -11
-4 -16 -1 -16 10 0 12 -10 16 -38 16 -41 0 -82 23 -82 46 0 8 -9 14 -20 14
-13 0 -22 9 -26 25 -3 14 -12 25 -20 25 -8 0 -14 5 -14 10 0 6 7 10 15 10 11
0 14 9 13 32 -3 29 0 32 47 49 53 18 71 39 33 39 -33 0 -50 14 -42 33 4 11 0
19 -10 23 -36 14 -15 26 33 20 45 -6 51 -4 70 20 16 20 18 29 9 44 -6 10 -18
16 -25 13 -8 -3 -13 2 -13 15 0 11 8 22 20 25 11 3 20 13 20 24 0 14 2 15 9 4
13 -20 109 -5 107 17 -1 17 39 22 63 8 8 -5 16 -3 22 5 4 8 28 14 56 15 132 4
125 2 118 24 -4 13 -2 20 6 20 7 0 3 9 -10 21 -17 16 -25 18 -36 9 -19 -16
-86 -1 -106 24 -17 20 -16 22 4 33 12 7 42 12 67 12 25 -1 52 2 61 5 9 4 22 6
30 4 8 -2 15 7 17 20 2 15 10 22 26 22 31 0 55 43 36 65 -21 25 3 42 34 25 15
-7 36 -10 53 -6 15 4 44 9 63 12 35 5 60 20 60 35 0 10 -60 69 -70 69 -4 0
-15 16 -26 35 -21 40 -21 40 -73 19 -34 -13 -44 -14 -67 -2 -15 7 -30 19 -32
27 -3 8 0 11 6 7 6 -3 13 -2 17 4 3 5 15 10 25 10 10 0 20 5 22 12 3 7 23 11
51 10 34 -2 52 3 66 17 17 17 98 31 181 31 16 0 29 8 35 22 6 12 21 25 35 29
23 7 24 7 3 8 -20 1 -22 5 -16 34 8 44 19 55 47 50 18 -4 33 3 55 26 17 17 35
31 41 31 7 0 6 7 -1 19 -15 24 -6 49 23 60 l22 8 -22 12 c-18 9 -22 9 -22 -2
0 -7 -9 -13 -20 -14 -12 -1 -20 4 -20 14 0 9 6 13 15 9 20 -7 19 4 -2 19 -15
11 -13 13 15 20 37 8 41 20 12 35 -25 13 -26 33 -3 56 17 16 18 15 25 -27 12
-69 15 -74 36 -57 9 9 34 18 55 22 20 4 37 10 37 15 0 4 21 9 47 10 25 0 52 6
60 12 9 9 14 7 19 -5 8 -20 24 -11 24 14 0 13 5 17 15 14 16 -6 21 11 6 20 -5
3 -32 -1 -61 -10 -48 -14 -53 -14 -71 2 -15 13 -17 19 -7 26 10 6 8 8 -4 8
-10 0 -18 4 -18 8 0 5 19 8 43 8 29 -1 41 3 39 12 -2 14 14 16 23 2 3 -5 13
-10 21 -10 8 0 13 4 9 9 -3 5 0 13 6 17 6 3 15 1 19 -6 10 -16 85 -7 250 29
83 18 100 23 100 30 0 13 107 10 147 -5 35 -13 46 -13 65 -3 13 8 26 12 31 11
4 -1 7 7 7 18 0 11 7 20 16 20 8 0 13 4 10 9 -6 9 61 21 69 12 3 -2 -5 -9 -17
-15 -51 -26 -26 -47 29 -25 15 7 47 11 71 10 37 -2 42 0 42 18 0 12 5 21 10
21 6 0 10 -11 10 -24 0 -19 6 -25 30 -28 20 -3 30 0 30 9 0 21 26 15 44 -9 15
-22 16 -22 29 -5 16 19 42 23 52 7 3 -5 19 -10 35 -10 30 0 49 28 34 52 -5 8
-2 9 12 3 10 -5 33 -9 49 -9 23 -1 30 3 30 18 0 38 47 59 140 62 85 3 105 8
105 23 0 16 -53 31 -85 25 -27 -5 -33 -2 -38 15 -7 27 -43 28 -100 2 -65 -29
-93 -33 -107 -16 -15 18 -63 20 -92 4 -14 -8 -28 -7 -49 2 -36 14 -47 6 -51
-39 -3 -36 -6 -38 -32 -19 -25 19 -12 65 22 74 l25 6 -27 14 c-14 7 -26 18
-26 23 0 6 -10 10 -22 10 -17 0 -19 -3 -10 -12 7 -7 12 -18 12 -26 0 -12 -10
-13 -52 -8 -29 4 -57 11 -61 15 -12 12 19 32 52 33 19 1 31 6 31 15 0 16 37
18 42 2 5 -15 57 -21 77 -9 10 6 11 10 4 10 -19 0 -16 30 2 30 9 0 18 -7 22
-16 3 -8 11 -13 19 -10 7 3 36 -4 66 -15 63 -23 68 -23 68 -4 0 8 -17 23 -37
33 l-37 19 27 25 c15 14 45 28 67 32 23 4 40 12 40 20 0 7 9 21 20 31 17 15
24 16 45 7 14 -6 25 -19 25 -28 0 -13 -6 -15 -29 -11 -19 4 -33 1 -40 -7 -12
-14 -10 -74 2 -93 4 -6 0 -13 -8 -17 -8 -3 -15 -10 -15 -16 0 -16 46 -12 60 5
10 12 10 15 -4 15 -20 0 -20 1 -1 36 l15 29 0 -27 c0 -17 5 -28 14 -28 17 0
29 27 16 35 -16 10 -12 23 11 35 15 9 24 8 35 -1 12 -10 12 -13 0 -23 -12 -9
-13 -17 -4 -47 10 -30 19 -38 53 -48 24 -7 58 -9 83 -5 36 6 42 10 37 25 -5
15 -1 19 21 19 26 0 27 0 9 20 -10 11 -28 20 -39 21 -17 0 -15 3 11 16 31 15
33 15 63 -11 39 -32 45 -32 66 -1 15 23 17 23 40 8 22 -14 26 -14 43 1 9 9 25
16 34 16 14 0 16 -7 12 -45 -6 -51 8 -75 45 -75 12 0 30 -5 41 -10 13 -7 19
-7 19 -1 0 6 -17 19 -39 30 -29 15 -38 26 -38 46 0 31 36 36 44 5 6 -21 28
-27 38 -10 9 15 -24 58 -51 64 -29 8 -32 26 -5 26 11 0 23 5 26 10 7 11 74 3
88 -10 5 -4 -2 -15 -14 -24 -32 -22 -18 -29 20 -10 30 15 36 15 69 0 43 -18
195 -21 189 -3 -2 8 -26 25 -45 33 -1 1 2 13 7 27 8 20 7 30 -4 41 -24 23 -18
56 10 56 6 0 16 -5 23 -12z m-400 -37 c-2 -9 -11 -17 -21 -19 -21 -4 -35 27
-17 38 19 12 42 0 38 -19z m-330 -51 c8 -22 7 -30 -4 -34 -7 -3 -13 -2 -13 2
6 39 -1 44 -51 37 -56 -8 -77 -1 -60 20 7 9 23 12 44 8 20 -3 36 -1 41 6 10
17 31 -2 43 -39z m-386 28 c-7 -7 -12 -19 -12 -28 0 -20 -70 -54 -84 -40 -18
18 -54 10 -74 -15 -27 -34 -55 -34 -46 1 6 24 5 26 -16 19 -15 -5 -20 -4 -16
4 4 6 31 11 61 11 30 0 56 4 60 9 3 5 30 15 61 22 30 7 57 16 60 21 3 4 8 8
12 8 3 0 1 -5 -6 -12z m1028 -13 c22 -27 -3 -42 -43 -27 -18 7 -47 12 -65 12
-40 0 -51 17 -15 23 65 10 111 7 123 -8z m990 -9 c0 -11 -19 -15 -25 -6 -3 5
1 10 9 10 9 0 16 -2 16 -4z m-153 -32 c-3 -3 -12 -4 -19 -1 -8 3 -5 6 6 6 11
1 17 -2 13 -5z m-1531 -21 c7 -10 14 -26 14 -35 0 -10 4 -18 10 -18 5 0 7 -7
4 -15 -11 -27 -39 -16 -56 21 -24 53 -3 88 28 47z m1564 -3 c0 -5 -8 -10 -17
-10 -15 0 -16 2 -3 10 19 12 20 12 20 0z m-1940 -20 c0 -5 -4 -10 -9 -10 -6 0
-13 5 -16 10 -3 6 1 10 9 10 9 0 16 -4 16 -10z m2680 -40 c0 -9 -42 -22 -48
-15 -3 3 1 11 7 19 12 14 41 12 41 -4z m-248 -52 c-6 -6 -15 -8 -19 -4 -4 4
-1 11 7 16 19 12 27 3 12 -12z m-2717 -59 c0 -8 -10 -15 -22 -17 -25 -4 -33
22 -10 31 18 8 32 2 32 -14z m508 -4 c1 -14 -81 -67 -93 -60 -20 13 -9 31 33
52 44 22 58 24 60 8z m-685 -33 c4 -23 -2 -27 -55 -36 -27 -5 -33 -2 -33 13 0
23 38 51 65 48 12 -1 21 -11 23 -25z m-383 8 c-3 -5 -13 -10 -21 -10 -8 0 -14
5 -14 10 0 6 9 10 21 10 11 0 17 -4 14 -10z m-435 -344 c0 -3 -4 -8 -10 -11
-5 -3 -10 -1 -10 4 0 6 5 11 10 11 6 0 10 -2 10 -4z m-230 -176 c0 -5 -7 -10
-15 -10 -8 0 -15 5 -15 10 0 6 7 10 15 10 8 0 15 -4 15 -10z m5330 -106 c0 -8
-4 -12 -10 -9 -5 3 -10 10 -10 16 0 5 5 9 10 9 6 0 10 -7 10 -16z m-75 -70
c15 -6 15 -8 -1 -25 -17 -19 -44 -15 -44 6 0 7 6 16 13 18 6 3 13 6 14 6 1 1
9 -2 18 -5z m-5705 -558 c0 -2 -9 -6 -20 -9 -11 -3 -20 -1 -20 4 0 5 9 9 20 9
11 0 20 -2 20 -4z m200 -774 c0 -16 -22 -30 -41 -25 -15 4 -17 8 -8 19 12 15
49 19 49 6z m-75 -22 c0 -8 -16 -22 -35 -31 -30 -15 -35 -15 -38 -2 -5 21 29
53 53 50 11 -1 20 -9 20 -17z m5780 10 c3 -5 1 -10 -4 -10 -6 0 -11 5 -11 10
0 6 2 10 4 10 3 0 8 -4 11 -10z m-5950 -18 c20 -5 35 -20 35 -35 0 -4 -8 -3
-17 3 -10 5 -30 14 -45 20 -16 5 -28 15 -28 21 0 7 7 8 18 4 9 -4 26 -10 37
-13z m5235 14 c0 -2 -3 -11 -6 -20 -9 -23 -24 -20 -24 4 0 11 7 20 15 20 8 0
15 -2 15 -4z m623 -82 c21 -4 27 -11 27 -31 0 -21 -3 -24 -22 -19 -13 3 -50 9
-83 12 -33 4 -75 14 -94 24 l-34 17 89 1 c49 0 101 -2 117 -4z m175 -29 c2 -2
-3 -11 -12 -20 -18 -19 -47 -13 -85 17 l-25 19 59 -6 c32 -3 60 -7 63 -10z
m-5702 -12 c29 -12 34 -18 21 -21 -22 -4 -77 16 -77 29 0 13 13 11 56 -8z
m101 -29 c-3 -3 -12 -4 -19 -1 -8 3 -5 6 6 6 11 1 17 -2 13 -5z m443 -48 c0
-9 -7 -12 -20 -9 -31 8 -34 23 -6 23 16 0 26 -6 26 -14z m-887 -53 c16 -9 6
-34 -18 -43 -32 -12 -33 -24 -1 -16 13 3 37 -1 52 -9 35 -18 46 -19 61 -4 13
13 95 20 112 9 8 -5 3 -13 -15 -25 -21 -13 -39 -16 -81 -12 -44 5 -60 2 -98
-20 -25 -13 -45 -28 -45 -33 0 -30 -78 -7 -92 27 -12 31 -9 53 6 47 9 -3 19 4
26 17 11 19 10 25 -5 35 -11 8 -15 20 -11 30 5 13 14 15 54 9 26 -4 50 -9 55
-12z m-238 -68 c19 -20 35 -42 35 -50 0 -8 7 -15 16 -15 25 0 10 -25 -17 -28
-13 -2 -28 -7 -34 -12 -5 -4 -25 -11 -42 -15 -25 -5 -33 -3 -33 8 0 7 -9 22
-20 32 -11 10 -20 24 -20 32 0 19 25 43 43 43 8 0 17 9 20 20 7 27 11 26 52
-15z m6855 -20 c10 -12 10 -16 -1 -19 -8 -2 -29 -9 -48 -15 -47 -15 -48 -14
-15 11 16 13 31 26 32 30 6 12 18 9 32 -7z m-6700 -1199 c0 -3 -4 -8 -10 -11
-5 -3 -10 -1 -10 4 0 6 5 11 10 11 6 0 10 -2 10 -4z m-5 -111 c0 -26 -31 -31
-56 -9 -29 26 -23 36 19 32 29 -2 37 -7 37 -23z m6545 -162 c0 -5 -7 -16 -14
-26 -11 -15 -15 -15 -25 -3 -10 11 -8 17 6 25 22 12 33 14 33 4z m-220 -107
c0 -21 -17 -36 -40 -36 -23 0 -28 -4 -25 -19 9 -47 -157 -92 -217 -60 -18 10
-25 8 -40 -11 -17 -21 -20 -21 -36 -7 -14 13 -26 14 -59 7 -23 -6 -52 -6 -65
-1 -22 8 -22 8 -1 19 24 13 130 25 188 22 114 -7 188 12 223 58 15 20 33 32
48 32 13 0 24 -2 24 -4z m55 -20 c0 -33 -8 -38 -36 -27 l-24 9 25 10 c18 8 20
11 8 11 -27 1 -22 21 5 21 18 0 23 -5 22 -24z m165 16 c0 -11 -60 -32 -91 -32
-24 0 -23 1 6 20 30 20 85 27 85 12z m-910 -102 c0 -5 23 -10 51 -10 85 0 120
-36 57 -57 -45 -15 -84 -10 -109 13 -11 10 -26 19 -32 20 -7 0 -20 2 -29 2
-25 3 -22 21 5 32 30 12 57 12 57 0z m714 -56 c23 -9 19 -31 -9 -50 -27 -17
-59 -16 -61 4 -1 6 -2 16 -3 21 0 5 -10 7 -21 4 -27 -7 -25 5 3 17 26 10 69
12 91 4z m-441 -34 c5 -4 -6 -10 -24 -14 -31 -6 -59 6 -59 26 0 10 70 0 83
-12z m45 -19 c3 -8 -1 -12 -9 -9 -7 2 -15 10 -17 17 -3 8 1 12 9 9 7 -2 15
-10 17 -17z m-5808 -16 c0 -7 8 -18 17 -24 10 -5 15 -13 11 -17 -4 -4 -14 -1
-22 5 -8 7 -41 13 -73 14 -66 2 -72 22 -6 22 23 0 45 3 49 8 12 12 24 8 24 -8z
m-112 -224 c22 -1 32 -6 32 -17 0 -14 -9 -16 -53 -12 -29 2 -64 12 -76 20 -22
16 -22 16 21 13 23 -2 58 -4 76 -4z m5690 -935 c-3 -17 0 -23 11 -22 10 1 16
-7 15 -22 -1 -20 4 -22 50 -23 66 0 86 1 115 4 13 1 26 -3 28 -8 6 -19 -38
-36 -115 -45 -42 -5 -102 -18 -133 -28 -75 -27 -104 -20 -123 28 -8 20 -12 47
-9 59 6 24 68 55 91 46 8 -3 25 4 39 15 33 26 36 25 31 -4z m77 5 c-3 -6 -14
-11 -23 -11 -15 1 -15 2 2 15 21 16 32 13 21 -4z m-265 -166 c0 -14 4 -25 8
-25 5 0 17 -7 28 -15 18 -13 18 -14 1 -15 -22 0 -67 43 -67 65 0 8 7 15 15 15
9 0 15 -9 15 -25z m-4623 9 c-3 -3 -12 -4 -19 -1 -8 3 -5 6 6 6 11 1 17 -2 13
-5z m4149 -163 c-4 -6 -14 -11 -22 -11 -12 0 -13 4 -3 21 7 14 14 18 21 11 6
-6 7 -15 4 -21z m-3589 -7 c-3 -3 -12 -4 -19 -1 -8 3 -5 6 6 6 11 1 17 -2 13
-5z m3203 -49 c0 -8 -9 -15 -20 -15 -13 0 -18 5 -14 15 4 8 12 15 20 15 8 0
14 -7 14 -15z m-3093 -1 c-3 -3 -12 -4 -19 -1 -8 3 -5 6 6 6 11 1 17 -2 13 -5z
m501 -27 c2 -10 -3 -17 -12 -17 -18 0 -29 16 -21 31 9 14 29 6 33 -14z m-368
-20 c30 -15 35 -60 8 -65 -11 -2 -18 3 -18 12 0 18 -29 35 -47 29 -19 -7 -16
-27 7 -48 26 -23 27 -57 3 -48 -10 4 -24 15 -31 25 -7 10 -22 18 -33 18 -21 0
-25 23 -9 64 8 22 16 26 52 26 24 0 54 -6 68 -13z m466 -6 c-4 -5 0 -11 6 -14
18 -6 0 -23 -34 -31 -36 -8 -47 12 -18 36 23 19 56 25 46 9z m-126 -16 c0 -10
-10 -15 -29 -15 -42 0 -48 18 -9 23 18 2 34 5 36 5 1 1 2 -5 2 -13z m-520 -75
c0 -11 -24 -17 -92 -23 -55 -5 -68 2 -36 20 27 15 128 17 128 3z m78 -36 c41
-20 41 -35 0 -27 -39 7 -53 17 -44 32 9 14 7 14 44 -5z m232 -2 c0 -4 -5 -13
-12 -20 -9 -9 -7 -16 6 -31 25 -27 7 -58 -33 -59 -17 0 -33 4 -37 9 -3 5 -10
6 -16 3 -7 -4 -8 -2 -4 5 4 6 12 8 19 4 6 -3 1 8 -12 25 -12 18 -31 32 -42 32
-11 0 -19 7 -19 16 0 12 7 14 33 9 36 -8 45 -18 53 -57 8 -36 24 -26 24 16 0
17 5 37 12 44 14 14 28 16 28 4z m3030 -1 c0 -6 -10 -17 -22 -25 -17 -12 -24
-13 -29 -4 -5 7 -3 18 3 25 12 15 48 18 48 4z m-3180 -51 c0 -5 -4 -10 -10
-10 -5 0 -10 5 -10 10 0 6 5 10 10 10 6 0 10 -4 10 -10z m-217 -57 c-14 -5
-75 29 -81 45 -2 6 18 -1 44 -15 26 -15 43 -28 37 -30z m3396 28 c21 -13 5
-29 -24 -23 -27 5 -33 17 -12 25 18 8 21 8 36 -2z m121 -1 c0 -9 -61 -30 -88
-30 -8 0 -12 6 -10 13 7 19 98 36 98 17z m-1505 -270 c3 -5 -1 -10 -10 -10 -9
0 -13 5 -10 10 3 6 8 10 10 10 2 0 7 -4 10 -10z m-75 -25 c0 -8 -7 -15 -15
-15 -26 0 -18 20 13 29 1 1 2 -6 2 -14z m-30 -54 c0 -4 -3 -11 -7 -14 -9 -9
-33 12 -33 30 0 11 4 11 20 3 11 -6 20 -14 20 -19z m80 -21 c0 -5 -5 -10 -11
-10 -5 0 -7 5 -4 10 3 6 8 10 11 10 2 0 4 -4 4 -10z"/>
<path d="M5138 7790 c-4 -25 0 -31 21 -38 29 -10 84 4 75 19 -3 5 -18 9 -33 9
-20 0 -30 6 -34 20 -8 30 -24 24 -29 -10z"/>
<path d="M4030 7760 c0 -11 5 -20 10 -20 6 0 10 9 10 20 0 11 -4 20 -10 20 -5
0 -10 -9 -10 -20z"/>
<path d="M5672 7748 c-16 -16 -15 -27 1 -24 18 3 37 16 37 27 0 13 -24 11 -38
-3z"/>
<path d="M4836 7731 c-7 -10 62 -31 79 -25 8 3 11 12 9 19 -6 14 -80 19 -88 6z"/>
<path d="M5068 7727 c-43 -10 -49 -24 -14 -33 13 -3 34 -17 45 -30 22 -25 51
-29 58 -8 2 6 -9 26 -24 45 -26 33 -30 34 -65 26z"/>
<path d="M6066 7733 c-3 -3 -3 -10 0 -14 7 -12 34 -11 34 0 0 11 -26 22 -34
14z"/>
<path d="M6008 7723 c19 -7 4 -23 -24 -23 -24 0 -34 -15 -13 -22 18 -6 -2 -38
-25 -38 -25 1 -50 18 -59 43 -7 20 -33 18 -31 -1 1 -7 2 -22 3 -35 2 -33 51
-48 122 -38 31 4 64 15 74 24 9 10 22 14 28 10 7 -4 8 0 4 11 -4 10 -7 20 -7
22 0 2 -7 4 -15 4 -8 0 -15 -5 -15 -11 0 -5 -5 -7 -10 -4 -7 4 -7 13 0 25 8
15 6 21 -9 30 -11 5 -23 10 -28 9 -4 0 -2 -3 5 -6z"/>
<path d="M5686 7693 c-11 -11 -6 -23 8 -23 8 0 17 4 20 9 7 10 -19 23 -28 14z"/>
<path d="M5735 7690 c-3 -5 -1 -10 4 -10 6 0 11 5 11 10 0 6 -2 10 -4 10 -3 0
-8 -4 -11 -10z"/>
<path d="M4884 7668 c-5 -7 -14 -22 -19 -33 -6 -10 -37 -34 -70 -53 -78 -44
-88 -54 -45 -46 19 4 54 24 77 44 34 30 48 36 73 32 l32 -5 -17 34 c-22 43
-21 43 -31 27z"/>
<path d="M5345 7670 c4 -6 11 -8 16 -5 14 9 11 15 -7 15 -8 0 -12 -5 -9 -10z"/>
<path d="M4810 7659 c0 -5 5 -7 10 -4 6 3 10 8 10 11 0 2 -4 4 -10 4 -5 0 -10
-5 -10 -11z"/>
<path d="M3837 7654 c-12 -12 3 -22 23 -17 11 3 17 9 14 14 -6 10 -28 12 -37
3z"/>
<path d="M4405 7646 c-12 -9 -32 -12 -53 -9 -30 5 -34 3 -30 -13 3 -16 11 -19
58 -16 62 3 87 17 69 38 -14 17 -20 17 -44 0z"/>
<path d="M4539 7645 c-1 -5 -1 -18 0 -27 2 -13 -5 -18 -23 -19 -37 -2 -44 -3
-51 -10 -11 -12 56 -16 69 -5 64 58 62 57 89 45 18 -8 26 -19 24 -33 -1 -15 4
-22 21 -24 25 -4 27 5 7 32 -8 11 -15 28 -15 37 0 15 -9 18 -60 16 -33 -1 -61
-6 -61 -12z"/>
<path d="M5770 7650 c0 -5 5 -10 10 -10 6 0 10 5 10 10 0 6 -4 10 -10 10 -5 0
-10 -4 -10 -10z"/>
<path d="M5662 7635 c-12 -9 -22 -20 -22 -26 0 -15 40 -10 46 6 11 27 0 36
-24 20z"/>
<path d="M5075 7620 c-3 -5 1 -10 10 -10 9 0 13 5 10 10 -3 6 -8 10 -10 10 -2
0 -7 -4 -10 -10z"/>
<path d="M4990 7610 c19 -13 30 -13 30 0 0 6 -10 10 -22 10 -19 0 -20 -2 -8
-10z"/>
<path d="M5394 7584 c3 -9 6 -18 6 -20 0 -3 5 -2 10 1 16 10 12 35 -6 35 -11
0 -14 -5 -10 -16z"/>
<path d="M6055 7590 c-3 -5 -1 -10 4 -10 6 0 11 5 11 10 0 6 -2 10 -4 10 -3 0
-8 -4 -11 -10z"/>
<path d="M6605 7591 c-9 -16 35 -35 48 -22 9 9 8 14 -3 21 -19 12 -37 13 -45
1z"/>
<path d="M4995 7560 c-5 -9 7 -15 62 -35 11 -4 40 22 32 29 -12 10 -89 15 -94
6z"/>
<path d="M5100 7553 c0 -5 7 -16 15 -27 10 -13 21 -17 39 -12 33 8 33 24 0 36
-30 12 -54 13 -54 3z"/>
<path d="M4420 7540 c0 -5 5 -10 10 -10 6 0 10 5 10 10 0 6 -4 10 -10 10 -5 0
-10 -4 -10 -10z"/>
<path d="M5290 7540 c0 -13 11 -13 30 0 12 8 11 10 -7 10 -13 0 -23 -4 -23
-10z"/>
<path d="M4596 7533 c-7 -8 53 -53 71 -53 7 0 13 4 13 10 0 12 -75 51 -84 43z"/>
<path d="M5470 7529 c0 -5 5 -7 10 -4 6 3 10 8 10 11 0 2 -4 4 -10 4 -5 0 -10
-5 -10 -11z"/>
<path d="M6620 7521 c0 -6 4 -11 9 -11 5 0 12 -8 15 -17 3 -11 4 -8 3 6 -2 24
-27 44 -27 22z"/>
<path d="M4262 7498 c-30 -30 7 -61 39 -32 18 16 18 18 1 30 -21 17 -25 17
-40 2z"/>
<path d="M4480 7494 c0 -8 5 -12 10 -9 6 4 8 11 5 16 -9 14 -15 11 -15 -7z"/>
<path d="M4960 7503 c0 -3 16 -20 36 -38 29 -26 44 -32 91 -34 52 -2 54 -1 39
15 -11 10 -27 15 -46 12 -17 -3 -30 -1 -30 4 0 4 -6 8 -14 8 -7 0 -25 9 -39
20 -26 21 -37 25 -37 13z"/>
<path d="M6877 7474 c-18 -24 -18 -24 8 -24 18 0 25 5 25 19 0 30 -13 32 -33
5z"/>
<path d="M4335 7470 c3 -5 8 -10 11 -10 2 0 4 5 4 10 0 6 -5 10 -11 10 -5 0
-7 -4 -4 -10z"/>
<path d="M4400 7472 c0 -11 51 -35 58 -27 7 7 -29 34 -45 35 -7 0 -13 -4 -13
-8z"/>
<path d="M5876 7438 c-29 -41 -13 -64 32 -47 31 12 39 37 16 54 -26 19 -30 19
-48 -7z"/>
<path d="M4690 7441 c0 -21 13 -41 26 -41 17 0 17 5 4 31 -11 20 -30 26 -30
10z"/>
<path d="M4540 7436 c0 -2 7 -6 15 -10 8 -3 15 -1 15 4 0 6 -7 10 -15 10 -8 0
-15 -2 -15 -4z"/>
<path d="M5310 7430 c0 -5 7 -10 16 -10 8 0 12 5 9 10 -3 6 -10 10 -16 10 -5
0 -9 -4 -9 -10z"/>
<path d="M4325 7420 c-3 -5 -1 -10 4 -10 6 0 11 5 11 10 0 6 -2 10 -4 10 -3 0
-8 -4 -11 -10z"/>
<path d="M6977 7423 c-11 -10 -8 -20 8 -27 10 -4 15 1 15 14 0 20 -11 26 -23
13z"/>
<path d="M2954 7319 c-9 -15 10 -31 29 -24 8 4 18 13 21 21 7 17 -39 20 -50 3z"/>
<path d="M7560 7136 c6 -8 18 -12 26 -9 19 7 7 23 -18 23 -17 0 -18 -3 -8 -14z"/>
<path d="M2612 7103 c2 -10 13 -18 25 -19 12 -1 29 -8 37 -17 17 -16 74 -33
83 -23 15 15 -11 35 -71 54 -80 26 -78 26 -74 5z"/>
<path d="M2822 7038 c6 -18 52 -40 56 -27 2 5 -2 16 -8 24 -15 18 -53 20 -48
3z"/>
<path d="M2540 6986 c0 -2 7 -7 16 -10 8 -3 12 -2 9 4 -6 10 -25 14 -25 6z"/>
<path d="M6627 6973 c-14 -13 -6 -29 23 -46 26 -16 32 -16 65 -3 19 8 35 19
35 24 0 22 -105 44 -123 25z"/>
<path d="M2617 6963 c-4 -3 -7 -11 -7 -17 0 -6 5 -5 12 2 6 6 9 14 7 17 -3 3
-9 2 -12 -2z"/>
<path d="M2786 6953 c-3 -4 -34 -16 -69 -28 -34 -12 -62 -26 -61 -31 4 -49 18
-71 42 -72 150 -6 210 14 239 80 10 22 9 28 -5 40 -17 15 -134 23 -146 11z"/>
<path d="M2538 6936 c-36 -7 -48 -14 -48 -28 0 -10 3 -18 8 -18 4 0 17 -3 30
-6 16 -5 22 -2 22 9 0 10 6 13 19 10 11 -3 21 2 25 13 10 26 -4 31 -56 20z"/>
<path d="M4096 6929 c-22 -5 -48 -17 -58 -26 -23 -21 -23 -60 1 -72 25 -14 35
-2 15 20 -14 15 -13 19 16 39 26 18 39 21 75 15 50 -7 63 -19 44 -41 -16 -19
-3 -31 19 -18 24 15 26 47 5 66 -24 22 -70 28 -117 17z"/>
<path d="M7337 6923 c-12 -11 -8 -23 8 -23 8 0 15 7 15 15 0 16 -12 20 -23 8z"/>
<path d="M3785 6849 c-4 -6 -5 -13 -2 -15 9 -9 77 8 71 17 -7 13 -61 11 -69
-2z"/>
<path d="M2244 6785 c-8 -21 3 -45 20 -45 21 0 46 28 40 45 -8 20 -53 19 -60
0z"/>
<path d="M5947 6793 c-12 -11 -8 -23 8 -23 8 0 15 7 15 15 0 16 -12 20 -23 8z"/>
<path d="M6400 6791 c0 -5 5 -13 10 -16 6 -3 10 -2 10 4 0 5 -4 13 -10 16 -5
3 -10 2 -10 -4z"/>
<path d="M7756 6775 c-4 -10 1 -15 16 -15 17 0 18 2 8 15 -7 8 -14 15 -15 15
-2 0 -5 -7 -9 -15z"/>
<path d="M5895 6760 c9 -31 11 -33 24 -29 5 2 0 15 -11 29 l-21 25 8 -25z"/>
<path d="M2853 6661 c-34 -21 -43 -51 -20 -69 22 -18 76 -24 110 -11 25 9 49
9 98 0 93 -16 240 -25 281 -17 22 4 35 12 35 22 0 14 -9 15 -61 9 -109 -13
-157 -2 -238 58 -41 31 -162 35 -205 8z"/>
<path d="M2327 6663 c-12 -11 -7 -33 7 -33 12 0 26 20 26 36 0 7 -26 5 -33 -3z"/>
<path d="M6775 6660 c-9 -15 4 -30 25 -30 24 0 36 20 19 31 -19 12 -36 11 -44
-1z"/>
<path d="M7615 6650 c-3 -5 -2 -10 4 -10 5 0 13 5 16 10 3 6 2 10 -4 10 -5 0
-13 -4 -16 -10z"/>
<path d="M7312 6628 c6 -18 28 -21 28 -4 0 9 -7 16 -16 16 -9 0 -14 -5 -12
-12z"/>
<path d="M7760 6623 c1 -22 64 -53 109 -53 18 0 30 4 27 9 -3 4 -16 6 -30 4
-18 -4 -31 3 -52 26 -30 34 -54 40 -54 14z"/>
<path d="M2390 6621 c0 -6 4 -13 10 -16 6 -3 7 1 4 9 -7 18 -14 21 -14 7z"/>
<path d="M7935 6511 c-3 -5 -1 -12 5 -16 5 -3 10 1 10 9 0 18 -6 21 -15 7z"/>
<path d="M2107 6503 c-12 -11 -8 -21 12 -26 25 -6 34 2 20 20 -13 14 -22 16
-32 6z"/>
<path d="M1985 6310 c-3 -5 -1 -10 4 -10 6 0 11 5 11 10 0 6 -2 10 -4 10 -3 0
-8 -4 -11 -10z"/>
<path d="M8120 5820 c0 -19 3 -21 12 -12 9 9 9 15 0 24 -9 9 -12 7 -12 -12z"/>
<path d="M2154 5822 c-20 -13 -25 -48 -9 -62 13 -10 15 -9 15 8 0 12 7 25 16
30 13 7 13 10 2 20 -8 6 -19 8 -24 4z"/>
<path d="M1860 5734 c0 -8 5 -12 10 -9 6 3 10 10 10 16 0 5 -4 9 -10 9 -5 0
-10 -7 -10 -16z"/>
<path d="M3332 5728 c6 -18 52 -33 73 -24 14 5 15 9 5 21 -15 19 -84 21 -78 3z"/>
<path d="M2634 5705 c11 -8 25 -15 30 -15 6 0 2 7 -8 15 -11 8 -25 15 -30 15
-6 0 -2 -7 8 -15z"/>
<path d="M2478 5643 c-16 -2 -28 -9 -28 -14 0 -14 44 -11 66 6 20 15 16 16
-38 8z"/>
<path d="M7688 5633 c7 -3 16 -2 19 1 4 3 -2 6 -13 5 -11 0 -14 -3 -6 -6z"/>
<path d="M3130 5621 c0 -5 24 -17 54 -25 62 -18 66 -19 66 -8 0 5 -24 16 -53
25 -62 20 -67 20 -67 8z"/>
<path d="M4140 5586 c0 -35 29 -48 114 -50 59 -1 84 -8 150 -39 55 -26 83 -34
90 -27 16 16 66 12 125 -10 37 -14 64 -19 85 -14 17 4 56 6 86 5 53 -1 54 -1
33 14 -29 20 -30 45 -3 52 12 3 19 11 17 17 -4 12 -179 21 -205 11 -12 -4 -12
-8 -2 -20 7 -9 11 -18 8 -21 -8 -8 -179 23 -228 41 -25 9 -66 20 -92 25 -26 5
-56 13 -67 19 -11 6 -33 11 -48 10 -15 -1 -36 2 -45 6 -15 6 -18 2 -18 -19z
m610 -76 c0 -5 -4 -10 -9 -10 -6 0 -13 5 -16 10 -3 6 1 10 9 10 9 0 16 -4 16
-10z"/>
<path d="M3375 5590 c-9 -14 2 -25 34 -35 29 -9 25 11 -6 32 -15 10 -23 11
-28 3z"/>
<path d="M6835 5570 c-3 -5 1 -10 9 -10 9 0 16 5 16 10 0 6 -4 10 -9 10 -6 0
-13 -4 -16 -10z"/>
<path d="M3956 5554 c-9 -24 -7 -28 9 -14 17 14 20 30 6 30 -5 0 -12 -7 -15
-16z"/>
<path d="M3805 5550 l-30 -7 28 -11 c16 -7 47 -12 70 -12 l42 1 -24 19 c-24
21 -36 22 -86 10z"/>
<path d="M5250 5543 c-14 -3 -32 -11 -42 -20 -13 -11 -24 -12 -55 -4 -36 9
-95 14 -156 12 -38 -1 -25 -19 21 -27 20 -4 42 -13 47 -20 8 -10 22 -10 64 -2
44 9 61 8 100 -5 62 -22 228 -38 277 -27 43 10 83 3 99 -15 14 -17 73 -27 81
-14 3 6 -3 13 -15 16 -12 3 -21 9 -21 14 0 5 -12 9 -27 9 -14 0 -34 6 -42 14
-9 8 -32 17 -51 20 -19 3 -71 17 -114 31 -75 24 -111 28 -166 18z"/>
<path d="M2995 5510 c3 -5 22 -10 41 -10 21 0 33 4 29 10 -3 6 -22 10 -41 10
-21 0 -33 -4 -29 -10z"/>
<path d="M3510 5472 c0 -15 35 -42 54 -42 9 0 14 5 11 10 -9 15 -65 42 -65 32z"/>
<path d="M4883 5436 c4 -14 47 -21 47 -8 0 5 -11 12 -25 15 -16 3 -24 0 -22
-7z"/>
<path d="M5760 5435 c0 -8 44 -28 68 -31 23 -2 23 -2 6 17 -15 16 -74 28 -74
14z"/>
<path d="M2840 5420 c0 -12 59 -28 83 -22 27 7 8 19 -40 26 -26 4 -43 2 -43
-4z"/>
<path d="M3800 5421 c-26 -18 0 -26 77 -24 74 2 93 7 80 19 -11 11 -141 15
-157 5z"/>
<path d="M3660 5410 c20 -13 53 -13 45 0 -3 6 -18 10 -33 10 -21 0 -24 -2 -12
-10z"/>
<path d="M5880 5386 c0 -15 64 -37 91 -31 41 9 36 25 -8 25 -21 0 -48 3 -60 6
-13 4 -23 4 -23 0z"/>
<path d="M7272 5356 c7 -8 16 -12 21 -9 11 7 -2 23 -19 23 -12 0 -12 -2 -2
-14z"/>
<path d="M7058 5343 c-71 -5 -76 -19 -9 -25 63 -6 113 1 108 16 -4 13 -19 14
-99 9z"/>
<path d="M3192 5325 c7 -8 45 -24 83 -35 162 -49 203 -60 260 -71 33 -6 66
-14 75 -17 10 -3 12 -2 5 6 -5 6 -53 25 -105 42 -52 18 -107 39 -122 46 -25
13 -164 44 -196 44 -10 0 -10 -3 0 -15z"/>
<path d="M4415 5330 c3 -5 11 -10 16 -10 6 0 7 5 4 10 -3 6 -11 10 -16 10 -6
0 -7 -4 -4 -10z"/>
<path d="M4914 5326 c22 -18 32 -20 40 -8 3 5 0 9 -7 9 -7 0 -21 4 -32 8 -20
7 -20 6 -1 -9z"/>
<path d="M7416 5331 c-3 -5 1 -11 9 -15 15 -6 29 7 18 18 -9 9 -21 8 -27 -3z"/>
<path d="M7490 5320 c8 -5 20 -10 25 -10 6 0 3 5 -5 10 -8 5 -19 10 -25 10 -5
0 -3 -5 5 -10z"/>
<path d="M6681 5280 c-13 -11 -29 -20 -37 -20 -8 0 -14 -5 -14 -11 0 -6 12 -8
28 -5 59 11 70 17 65 37 -7 24 -12 23 -42 -1z"/>
<path d="M6535 5270 c3 -5 13 -10 21 -10 8 0 12 5 9 10 -3 6 -13 10 -21 10 -8
0 -12 -4 -9 -10z"/>
<path d="M4338 5253 c7 -3 16 -2 19 1 4 3 -2 6 -13 5 -11 0 -14 -3 -6 -6z"/>
<path d="M4460 5201 c0 -5 7 -12 16 -15 24 -9 28 -7 14 9 -14 17 -30 20 -30 6z"/>
<path d="M1370 5008 c0 -4 7 -8 15 -8 8 0 15 4 15 8 0 5 -7 9 -15 9 -8 0 -15
-4 -15 -9z"/>
<path d="M8673 4897 c-2 -4 4 -10 14 -13 10 -3 30 -12 46 -20 24 -14 28 -14
33 0 11 29 -2 41 -45 41 -24 0 -45 -3 -48 -8z"/>
<path d="M1494 4806 c-29 -21 -10 -30 25 -11 17 8 31 18 31 20 0 11 -37 4 -56
-9z"/>
<path d="M8630 4161 c-7 -15 -7 -21 0 -21 12 0 25 28 17 36 -3 3 -10 -4 -17
-15z"/>
<path d="M8216 4061 c-31 -6 -48 -31 -22 -31 21 0 66 21 66 32 0 9 -1 9 -44
-1z"/>
<path d="M8480 3930 c0 -17 61 -43 73 -31 16 16 -11 41 -44 41 -16 0 -29 -4
-29 -10z"/>
<path d="M2250 3886 c-27 -7 -46 -18 -48 -28 -5 -27 18 -32 42 -9 17 16 25 18
34 9 9 -9 16 -7 32 7 20 18 19 36 -3 34 -7 -1 -32 -6 -57 -13z"/>
<path d="M2379 3861 c-13 -11 -19 -20 -13 -21 15 0 50 27 43 34 -3 4 -17 -2
-30 -13z"/>
<path d="M2655 3870 c-3 -5 1 -10 10 -10 9 0 13 5 10 10 -3 6 -8 10 -10 10 -2
0 -7 -4 -10 -10z"/>
<path d="M2571 3831 c-11 -11 -35 -21 -53 -23 -42 -4 -51 -33 -12 -42 30 -8
49 5 77 53 21 35 16 40 -12 12z"/>
<path d="M2626 3770 c-38 -39 -30 -63 18 -55 33 7 34 5 51 -39 l18 -46 -28
-22 c-16 -13 -48 -30 -73 -39 l-45 -17 36 -11 c31 -10 42 -9 81 8 25 12 52 21
61 21 9 0 35 13 58 30 37 26 49 29 105 27 41 -2 67 -8 78 -19 17 -17 10 -43
-8 -32 -11 7 -29 -16 -22 -28 6 -9 61 1 96 18 15 8 37 14 50 13 95 -3 140 4
167 26 30 26 81 43 81 27 0 -17 58 -19 123 -5 101 23 107 25 107 33 0 12 -74
20 -84 10 -16 -16 -44 -12 -66 10 -24 24 -49 28 -30 5 11 -13 8 -15 -14 -15
-14 0 -26 3 -26 8 0 4 -34 7 -74 8 -41 0 -75 -2 -74 -5 2 -24 -5 -32 -24 -30
-13 2 -30 -1 -38 -6 -13 -8 -13 -7 -1 8 7 9 21 17 30 17 9 1 -3 10 -26 20 -23
11 -49 30 -57 41 -8 13 -36 27 -63 34 -53 14 -76 4 -86 -36 -5 -19 -1 -20 35
-17 65 5 61 -38 -5 -49 -39 -6 -127 15 -127 31 0 5 -7 26 -16 46 -16 36 -17
37 -65 32 -34 -3 -56 0 -73 12 -33 21 -36 21 -70 -14z"/>
<path d="M3513 3788 c-7 -8 -8 -30 -4 -53 l6 -39 22 23 c15 17 19 29 14 49 -8
30 -24 38 -38 20z"/>
<path d="M3185 3780 c-27 -6 -28 -8 -10 -14 11 -4 28 -12 37 -17 23 -12 23
-13 24 16 2 26 -2 27 -51 15z"/>
<path d="M4050 3775 c0 -8 7 -15 15 -15 8 0 15 7 15 15 0 8 -7 15 -15 15 -8 0
-15 -7 -15 -15z"/>
<path d="M2896 3734 c-8 -21 -1 -28 19 -20 9 3 15 11 13 18 -7 19 -25 20 -32
2z"/>
<path d="M3321 3717 c-25 -25 -7 -36 23 -14 16 12 17 15 4 20 -9 3 -21 0 -27
-6z"/>
<path d="M3652 3637 c-12 -18 -18 -33 -14 -35 13 -4 182 24 189 32 3 3 4 8 1
12 -8 7 -125 7 -137 0 -5 -4 -11 0 -13 8 -2 10 -10 5 -26 -17z"/>
<path d="M7328 3610 c33 -30 34 -30 63 -13 42 25 31 38 -37 41 l-59 3 33 -31z"/>
<path d="M2503 3588 c-38 -12 -44 -28 -10 -28 38 0 67 12 67 26 0 16 -12 16
-57 2z"/>
<path d="M2896 3574 c-4 -11 -1 -14 11 -12 9 2 18 9 21 16 6 18 -25 15 -32 -4z"/>
<path d="M2468 3443 c-22 -6 -22 -12 1 -40 38 -45 61 -46 201 -10 25 6 48 10
53 9 4 -1 7 3 7 9 0 7 -12 9 -32 5 -101 -19 -118 -19 -141 1 -24 22 -62 33
-89 26z"/>
<path d="M2777 3394 c-14 -14 -6 -24 19 -24 16 0 24 5 22 13 -5 14 -31 21 -41
11z"/>
<path d="M2424 3296 c-7 -29 20 -86 41 -86 17 0 20 26 5 35 -5 3 -10 22 -10
41 0 40 -26 48 -36 10z"/>
<path d="M2630 3300 c0 -5 5 -10 10 -10 6 0 10 5 10 10 0 6 -4 10 -10 10 -5 0
-10 -4 -10 -10z"/>
<path d="M2690 3291 c0 -11 69 -36 76 -28 3 2 -2 12 -11 21 -18 17 -65 22 -65
7z"/>
<path d="M3434 3279 c-3 -6 -1 -16 5 -22 8 -8 11 -5 11 11 0 24 -5 28 -16 11z"/>
<path d="M2510 3270 c0 -19 40 -50 65 -50 30 0 43 24 25 45 -14 17 -90 21 -90
5z"/>
<path d="M6736 3111 c-14 -15 -26 -18 -52 -14 -53 9 -164 -27 -164 -52 0 -8
-4 -15 -8 -15 -4 0 -9 -29 -10 -64 -2 -56 1 -68 20 -85 12 -12 29 -21 37 -21
13 1 12 4 -3 15 -11 8 -23 15 -27 15 -8 0 -18 61 -12 76 3 8 16 6 41 -6 23
-12 41 -15 47 -9 5 5 23 9 40 9 22 0 26 -3 16 -9 -24 -15 36 -26 65 -12 14 6
34 11 46 11 26 0 82 46 67 56 -6 3 -16 1 -22 -5 -25 -25 -28 -10 -11 61 4 19
0 32 -15 47 -26 26 -33 26 -55 2z m-155 -107 c10 -13 10 -17 -2 -25 -30 -19
-54 -5 -43 25 8 20 28 20 45 0z m199 -3 c0 -12 -39 -21 -45 -11 -3 5 5 11 17
13 13 2 24 5 26 6 1 0 2 -3 2 -8z"/>
<path d="M2330 3080 c20 -13 63 -13 55 0 -3 6 -21 10 -38 10 -24 0 -28 -3 -17
-10z"/>
<path d="M7029 3016 c9 -11 5 -19 -19 -37 -33 -26 -41 -52 -12 -42 41 14 82
77 56 87 -27 10 -37 7 -25 -8z"/>
<path d="M1717 3004 c-3 -4 -2 -15 3 -25 7 -12 7 -20 0 -24 -16 -10 5 -32 36
-39 20 -5 32 -1 50 17 21 21 22 26 9 37 -8 7 -15 9 -15 5 0 -3 -15 3 -34 14
-37 23 -40 24 -49 15z"/>
<path d="M8125 2932 c-44 -18 -55 -28 -55 -55 0 -14 5 -16 28 -11 15 4 34 13
43 20 8 8 28 14 42 14 15 0 27 2 27 5 0 6 -39 46 -42 44 -2 -1 -21 -8 -43 -17z"/>
<path d="M6940 2910 c-12 -12 -19 -24 -16 -28 4 -3 16 4 28 16 12 12 19 24 16
28 -4 3 -16 -4 -28 -16z"/>
<path d="M6310 2890 c0 -6 19 -19 43 -29 23 -11 63 -29 88 -41 61 -27 160 -35
224 -17 28 8 49 19 48 25 -2 6 11 21 28 33 23 16 28 24 17 30 -30 20 -138 3
-138 -21 0 -5 9 -10 20 -10 11 0 20 5 20 10 0 6 9 10 20 10 39 0 20 -32 -32
-53 -27 -12 -46 -13 -78 -6 -23 5 -45 7 -50 4 -4 -3 -26 13 -47 36 -37 37 -41
39 -66 28 -21 -9 -33 -9 -52 -1 -32 15 -45 15 -45 2z"/>
<path d="M6830 2855 c-14 -16 -10 -18 14 -9 9 3 16 10 16 15 0 14 -16 11 -30
-6z"/>
<path d="M7935 2760 c-3 -5 -1 -10 4 -10 6 0 11 5 11 10 0 6 -2 10 -4 10 -3 0
-8 -4 -11 -10z"/>
<path d="M2420 2715 c0 -3 9 -16 20 -27 22 -24 45 -14 34 15 -5 15 -54 25 -54
12z"/>
<path d="M2700 2660 c0 -35 18 -39 44 -11 22 24 13 41 -20 41 -20 0 -24 -5
-24 -30z"/>
<path d="M3085 2370 c-9 -15 -1 -22 27 -25 13 -2 31 -6 41 -10 12 -5 17 -2 17
8 0 19 -6 23 -47 31 -19 5 -34 3 -38 -4z"/>
<path d="M2735 2340 c-7 -11 2 -30 13 -30 4 0 14 5 22 10 13 9 13 11 0 20 -19
12 -27 12 -35 0z"/>
<path d="M7582 2328 c7 -19 38 -22 38 -4 0 10 -9 16 -21 16 -12 0 -19 -5 -17
-12z"/>
<path d="M2927 2314 c-14 -15 17 -34 54 -34 45 0 52 15 12 23 -16 3 -35 8 -44
12 -8 3 -18 3 -22 -1z"/>
<path d="M2835 2301 c-3 -5 -1 -12 5 -16 12 -7 30 2 30 16 0 12 -27 12 -35 0z"/>
<path d="M7239 2288 c-1 -7 -1 -18 0 -24 2 -15 -41 -26 -53 -14 -15 15 -36 12
-30 -4 3 -7 23 -18 45 -25 46 -14 85 3 69 29 -5 8 -7 17 -5 20 1 3 -3 11 -11
18 -11 10 -14 10 -15 0z"/>
<path d="M7025 2261 c-19 -8 -19 -8 2 -19 27 -15 60 -15 68 -2 4 6 13 9 20 8
8 -2 15 2 17 7 4 12 -80 17 -107 6z"/>
<path d="M2828 2243 c7 -3 16 -2 19 1 4 3 -2 6 -13 5 -11 0 -14 -3 -6 -6z"/>
<path d="M2864 2226 c-8 -22 3 -33 18 -18 9 9 9 15 0 24 -9 9 -13 7 -18 -6z"/>
<path d="M6601 2221 c-19 -5 -21 -8 -10 -17 10 -8 18 -6 32 8 18 19 16 20 -22
9z"/>
<path d="M6927 2164 c-3 -3 -62 -9 -131 -13 -112 -6 -129 -10 -149 -29 -19
-19 -20 -24 -7 -32 8 -5 27 -10 43 -11 43 -2 45 -3 67 -27 15 -16 26 -20 37
-13 9 4 24 6 34 4 11 -3 19 -1 19 5 0 9 -22 19 -72 36 -10 3 -18 12 -18 21 0
12 13 15 59 15 38 0 61 -4 63 -12 8 -22 82 3 86 28 3 20 -19 39 -31 28z"/>
<path d="M2915 2140 c-3 -5 1 -10 9 -10 8 0 18 5 21 10 3 6 -1 10 -9 10 -8 0
-18 -4 -21 -10z"/>
<path d="M6540 2120 c-17 -11 -8 -23 14 -18 9 2 12 8 8 15 -5 8 -13 9 -22 3z"/>
<path d="M2936 2031 c-9 -14 20 -32 39 -25 17 7 17 8 -1 21 -21 15 -31 16 -38
4z"/>
<path d="M4064 1979 c-15 -25 44 -45 72 -24 16 13 17 16 4 25 -20 13 -67 13
-76 -1z"/>
<path d="M6180 1880 c0 -5 8 -10 19 -10 10 0 36 -8 57 -17 55 -24 72 -24 66
-1 -2 10 -10 17 -16 15 -6 -2 -22 0 -36 5 -39 15 -90 19 -90 8z"/>
<path d="M5055 1829 c-4 -6 -4 -13 -1 -16 8 -8 36 5 36 17 0 13 -27 13 -35 -1z"/>
<path d="M4520 1815 c0 -8 9 -15 21 -15 24 0 16 -18 -9 -19 -9 -1 -62 -2 -117
-4 -103 -2 -125 -8 -125 -32 0 -11 6 -12 25 -5 18 7 32 5 54 -8 25 -14 33 -14
54 -3 16 9 38 11 62 7 21 -4 50 -2 70 5 26 10 38 10 46 2 9 -9 16 -6 29 9 17
21 16 23 -14 50 -34 31 -96 40 -96 13z"/>
<path d="M5385 1821 c-3 -5 -1 -12 4 -15 13 -8 42 4 35 15 -7 12 -31 12 -39 0z"/>
<path d="M4703 1803 c-18 -7 -16 -30 3 -37 31 -12 45 -7 42 16 -3 23 -22 31
-45 21z"/>
<path d="M5240 1796 c0 -2 8 -10 18 -17 15 -13 16 -12 3 4 -13 16 -21 21 -21
13z"/>
<path d="M5177 1773 c-12 -11 -8 -23 8 -23 8 0 15 7 15 15 0 16 -12 20 -23 8z"/>
<path d="M4780 1760 l-25 -8 28 -1 c15 -1 27 4 27 9 0 6 -1 10 -2 9 -2 -1 -14
-5 -28 -9z"/>
<path d="M5321 1752 c-9 -17 -95 -52 -128 -52 -15 0 -83 -51 -83 -62 0 -4 25
3 56 17 43 19 60 22 70 14 10 -8 22 -6 46 10 53 34 65 45 72 69 9 28 -18 31
-33 4z"/>
<path d="M5644 1746 c-58 -32 -71 -59 -26 -54 19 2 28 9 30 26 3 16 10 22 28
22 14 0 22 4 19 10 -8 13 -24 11 -51 -4z"/>
<path d="M5074 1737 c-3 -9 -4 -24 -2 -34 3 -16 5 -15 17 6 9 16 10 26 2 34
-7 7 -12 6 -17 -6z"/>
<path d="M5383 1697 c-22 -29 -28 -44 -20 -49 19 -12 54 -9 66 6 7 8 26 17 42
20 16 3 43 9 59 12 18 3 30 12 30 21 0 12 -3 13 -14 4 -11 -9 -20 -9 -35 -2
-14 8 -27 8 -45 0 -30 -14 -58 -5 -50 16 10 24 1 17 -33 -28z"/>
<path d="M4710 1684 c-114 -20 -113 -20 -100 -44 9 -17 21 -20 84 -20 48 0 84
-6 106 -17 31 -15 40 -15 119 0 47 9 92 23 100 32 14 13 13 17 -7 38 -20 19
-34 22 -120 24 -53 1 -135 -5 -182 -13z"/>
<path d="M6057 1655 c-13 -25 -13 -33 0 -63 8 -19 12 -41 8 -49 -9 -24 12 -41
43 -35 34 6 52 20 63 50 7 19 15 23 40 20 40 -4 41 3 3 36 -38 31 -51 33 -59
6 -3 -11 -13 -20 -21 -20 -20 0 -17 14 6 35 26 23 12 39 -23 26 -21 -8 -28 -7
-36 6 -7 14 -11 12 -24 -12z"/>
<path d="M4457 1663 c-4 -3 -7 -15 -7 -25 0 -10 -5 -18 -12 -18 -6 0 -8 -3 -5
-6 4 -4 17 0 29 8 15 10 30 12 43 7 11 -4 32 -8 48 -8 21 -1 27 4 27 19 0 23
-4 24 -29 9 -14 -9 -25 -8 -51 5 -38 19 -35 18 -43 9z"/>
<path d="M6403 1663 c8 -7 77 -6 85 2 3 3 -16 5 -43 5 -27 0 -45 -3 -42 -7z"/>
<path d="M6335 1650 c-9 -15 4 -30 26 -30 12 0 19 7 19 20 0 21 -33 29 -45 10z"/>
<path d="M3810 1640 c0 -5 6 -10 14 -10 8 0 16 -10 18 -22 3 -23 28 -38 28
-16 -1 30 -60 77 -60 48z"/>
<path d="M6402 1628 c-15 -15 -3 -38 18 -38 11 0 22 -4 25 -10 10 -15 35 -12
35 5 0 8 7 15 15 15 19 0 19 7 1 25 -10 10 -16 11 -24 3 -8 -8 -18 -8 -36 -1
-16 8 -27 8 -34 1z"/>
<path d="M5623 1618 c-14 -7 -23 -20 -23 -35 0 -17 6 -23 23 -23 29 0 90 37
84 53 -5 16 -56 19 -84 5z"/>
<path d="M4303 1597 c-32 -14 -29 -27 7 -27 19 0 30 5 30 14 0 21 -12 25 -37
13z"/>
<path d="M5866 1571 c-13 -14 -31 -21 -56 -21 -32 0 -37 -4 -48 -33 -7 -18
-12 -36 -12 -39 0 -10 152 0 181 13 36 14 37 32 2 55 -16 9 -33 24 -38 31 -9
12 -14 11 -29 -6z"/>
<path d="M6347 1584 c-13 -13 -7 -24 12 -24 10 0 21 -7 25 -15 9 -25 24 -17
18 10 -2 14 -8 25 -12 25 -5 0 -15 2 -22 5 -8 3 -17 2 -21 -1z"/>
<path d="M5710 1554 c-21 -21 -22 -27 -10 -34 21 -14 30 -12 30 5 0 8 9 19 20
25 11 6 20 15 20 20 0 19 -37 10 -60 -16z"/>
<path d="M4637 1553 c-14 -13 -6 -24 15 -21 27 4 36 28 11 28 -11 0 -23 -3
-26 -7z"/>
<path d="M4991 1536 c-16 -19 1 -46 29 -46 23 0 80 29 80 41 0 13 -44 11 -58
-3 -9 -9 -15 -8 -25 6 -12 16 -14 16 -26 2z"/>
<path d="M6315 1520 c3 -5 10 -10 16 -10 5 0 9 5 9 10 0 6 -7 10 -16 10 -8 0
-12 -4 -9 -10z"/>
<path d="M3734 1505 c-10 -25 10 -39 36 -25 26 14 22 34 -8 38 -13 2 -25 -3
-28 -13z"/>
<path d="M5215 1505 c-20 -15 -20 -15 4 -35 13 -11 38 -20 57 -20 19 0 43 -6
54 -12 17 -11 22 -10 30 1 5 8 5 22 0 30 -8 16 -10 23 -10 41 0 6 -6 10 -14
10 -8 0 -13 -8 -12 -17 2 -28 -50 -30 -72 -3 -16 19 -19 20 -37 5z"/>
<path d="M5455 1498 c-14 -21 -14 -24 2 -36 22 -16 43 -12 57 11 9 15 7 21 -8
33 -26 19 -32 18 -51 -8z"/>
<path d="M4790 1495 c-10 -12 -10 -18 0 -29 6 -8 17 -13 23 -11 7 2 24 6 40 9
15 4 27 13 27 20 0 28 -69 36 -90 11z"/>
<path d="M4460 1491 c-55 -10 -52 -60 4 -61 15 0 16 3 6 15 -10 12 -7 17 14
26 23 11 29 10 47 -9 24 -27 29 -27 29 -3 0 12 -11 23 -31 30 -18 6 -32 10
-33 10 -1 -1 -17 -4 -36 -8z"/>
<path d="M5603 1460 c-29 -12 -30 -46 -3 -55 25 -8 93 2 125 19 18 9 21 16 13
29 -7 13 -22 17 -61 16 -29 0 -62 -4 -74 -9z"/>
<path d="M4315 1430 c3 -5 8 -10 11 -10 2 0 4 5 4 10 0 6 -5 10 -11 10 -5 0
-7 -4 -4 -10z"/>
<path d="M4980 1415 c0 -8 5 -15 10 -15 6 0 10 7 10 15 0 8 -4 15 -10 15 -5 0
-10 -7 -10 -15z"/>
</g>
</svg>
